<?xml version="1.0" standalone="no"?><!DOCTYPE svg PUBLIC "-//W3C//DTD SVG 1.1//EN" "http://www.w3.org/Graphics/SVG/1.1/DTD/svg11.dtd"><svg t="1740733975414" class="icon" viewBox="0 0 1024 1024" version="1.1" xmlns="http://www.w3.org/2000/svg" p-id="62928" xmlns:xlink="http://www.w3.org/1999/xlink" width="200" height="200"><path d="M251.619556 113.777778v62.634666H119.523556v132.096H56.888889V113.777778zM251.619556 901.461333v-62.634666H119.523556v-132.096H56.888889v194.730666zM772.380444 113.777778v62.634666h132.096v132.096H967.111111V113.777778zM772.380444 901.461333v-62.634666h132.096v-132.096H967.111111v194.730666z" fill="#ffffff" p-id="62929"></path><path d="M817.664 288.597333v99.783111h-51.598222v250.766223h51.598222v99.726222h-214.243556v-99.726222h58.936889V388.380444h-58.936889V288.597333h214.243556z m-498.631111-2.616889l140.174222 1.194667 131.811556 450.56-110.478223-0.967111-25.031111-94.776889-135.452444-1.137778-25.543111 94.321778-108.373334-0.967111 132.892445-448.284444zM385.137778 397.255111l-37.546667 140.231111 80.782222 0.682667-36.977777-140.856889h-6.257778z" fill="#ffffff" p-id="62930"></path></svg>