8<?xml version="1.0" standalone="no"?><!DOCTYPE svg PUBLIC "-//W3C//DTD SVG 1.1//EN" "http://www.w3.org/Graphics/SVG/1.1/DTD/svg11.dtd"><svg t="1739155059611" class="icon" viewBox="0 0 1264 1024" version="1.1" xmlns="http://www.w3.org/2000/svg" p-id="11455" xmlns:xlink="http://www.w3.org/1999/xlink" width="246.875" height="200"><path d="M1228.398964 785.786946c-61.660811-64.731808-97.067604-159.270356-97.067605-259.408958 0-100.259033 35.406794-194.67715 97.067605-259.348742a24.447548 24.447548 0 0 0 4.636604-23.303451 16.800162 16.800162 0 0 0-16.438869-12.705499c-61.540379 4.215094-120.431271 26.856173-169.14572 64.972671a295.417908 295.417908 0 0 0-88.516984 113.506473 461.613062 461.613062 0 0 0-165.592998-152.104695 580.719589 580.719589 0 0 0-20.774394-10.89903c60.576929-68.645824 164.147822-121.214074 164.147823-121.214075s-229.180709-132.474398-318.058987-124.646365C556.753766 6.295545 465.707725 125.823581 416.692198 197.239325a570.543146 570.543146 0 0 0-65.755474 15.716281 528.69328 528.69328 0 0 0-144.517526 68.404962A459.445299 459.445299 0 0 0 96.345017 386.075558 392.545728 392.545728 0 0 0 30.950837 519.633837a25.772292 25.772292 0 0 0 0 12.886146c13.24744 48.473587 35.406794 93.81596 65.333964 133.498064a459.445299 459.445299 0 0 0 110.194613 104.594559c19.509866 13.367871 39.802535 25.290567 60.878008 35.768087 111.398926-72.379194 186.969548-208.526746 195.580384-383.091873 12.886146 159.390787-28.722858 308.665347-116.457039 414.584651l4.335525 1.445175c27.578761 8.249542 55.639247 14.451753 84.061027 18.546416 19.44965 47.148843 43.836983 116.216176 41.970298 161.498334 0 0 71.114666-67.441512 106.581675-66.237199 25.290567 0.782803-12.82593-56.84356-36.851969-90.082591a583.248645 583.248645 0 0 0 137.532512-22.701294c26.013155 45.402589 84.30189 133.859358 142.831487 133.859357 0 0 75.32976-124.285072 122.117309-124.285071 0 0-72.379194-43.355258-94.719195-94.839626a442.404274 442.404274 0 0 0 104.353697-112.121513 295.11683 295.11683 0 0 0 88.637415 113.687119 308.90621 308.90621 0 0 0 169.326367 65.514612 16.860378 16.860378 0 0 0 16.438868-12.765715 23.845392 23.845392 0 0 0-4.696819-23.664745zM284.819956 463.512865a69.488843 69.488843 0 0 1 0-138.917471 69.488843 69.488843 0 0 1 0 138.917471z" fill="#BBBBBB" opacity=".622" p-id="11456"></path></svg>