<?xml version="1.0" standalone="no"?><!DOCTYPE svg PUBLIC "-//W3C//DTD SVG 1.1//EN" "http://www.w3.org/Graphics/SVG/1.1/DTD/svg11.dtd"><svg t="1740886450490" class="icon" viewBox="0 0 1024 1024" version="1.1" xmlns="http://www.w3.org/2000/svg" p-id="14411" xmlns:xlink="http://www.w3.org/1999/xlink" width="200" height="200"><path d="M900.949333 0H123.008A123.136 123.136 0 0 0 0 123.008v777.984A123.136 123.136 0 0 0 123.008 1024h777.941333A123.178667 123.178667 0 0 0 1024 900.992V123.008A123.178667 123.178667 0 0 0 900.949333 0zM981.333333 900.992A80.469333 80.469333 0 0 1 900.949333 981.333333H123.008A80.469333 80.469333 0 0 1 42.666667 900.992V123.008C42.666667 78.677333 78.72 42.666667 123.008 42.666667h777.941333C945.28 42.666667 981.333333 78.677333 981.333333 123.008v777.984z" p-id="14412" fill="#1296db"></path><path d="M298.538667 201.770667v-12.714667a21.333333 21.333333 0 0 0-42.666667 0v12.757333c-50.176 9.941333-88.106667 54.229333-88.106667 107.221334s37.930667 97.28 88.064 107.264v417.109333a21.333333 21.333333 0 0 0 42.666667 0V416.298667C348.629333 406.357333 386.56 362.069333 386.56 309.034667s-37.888-97.28-88.021333-107.264z m-21.333334 174.037333c-36.821333 0-66.730667-29.952-66.730666-66.730667S240.426667 242.346667 277.205333 242.346667s66.730667 29.952 66.730667 66.730666-29.952 66.730667-66.730667 66.730667zM537.301333 575.36V189.056a21.333333 21.333333 0 0 0-42.666666 0v386.304c-50.133333 9.941333-88.064 54.229333-88.064 107.264s37.930667 97.28 88.064 107.264v43.52a21.333333 21.333333 0 0 0 42.666666 0v-43.52c50.133333-9.941333 88.064-54.229333 88.064-107.264s-37.930667-97.322667-88.064-107.264z m-21.333333 173.994667c-36.821333 0-66.730667-29.952-66.730667-66.730667s29.952-66.730667 66.730667-66.730667 66.730667 29.952 66.730667 66.730667-29.909333 66.730667-66.730667 66.730667zM767.104 308.522667v-119.466667a21.333333 21.333333 0 0 0-42.666667 0v119.466667c-50.133333 9.941333-88.064 54.229333-88.064 107.264s37.930667 97.28 88.064 107.264v310.357333a21.333333 21.333333 0 0 0 42.666667 0v-310.357333c50.133333-9.941333 88.064-54.229333 88.064-107.264s-37.888-97.322667-88.064-107.264z m-21.333333 173.994666c-36.778667 0-66.730667-29.952-66.730667-66.730666s29.952-66.730667 66.730667-66.730667 66.730667 29.952 66.730666 66.730667-29.909333 66.730667-66.730666 66.730666z" p-id="14413" fill="#1296db"></path></svg>