<?xml version="1.0" standalone="no"?><!DOCTYPE svg PUBLIC "-//W3C//DTD SVG 1.1//EN" "http://www.w3.org/Graphics/SVG/1.1/DTD/svg11.dtd"><svg t="1739155387630" class="icon" viewBox="0 0 1041 1024" version="1.1" xmlns="http://www.w3.org/2000/svg" p-id="17912" xmlns:xlink="http://www.w3.org/1999/xlink" width="203.3203125" height="200"><path d="M1041.484397 338.589476c0-18.517958-9.708086-40.394987-20.019081-55.123223C941.364382 168.728741 800.652512 136.577629 715.986686 130.191702c-23.378153-26.72492-131.065306-110.590966-131.065306-110.590967-56.968867-44.098579-56.66126 0-56.66126 0V157.494923c-153.336073 81.614361-153.336073 124.913161-187.775783 147.319275s-70.417457-36.912873-126.734196-86.523773-78.230681-33.639931-75.056174 0c2.387032 25.445274 27.06944 81.146798 38.979993 106.899679 2.202468 6.964229 3.531331 18.604088-3.432897 34.452014-12.698028 27.820002-33.430758 76.286603-35.547096 99.430975-3.12529 33.603018 18.788652 49.660118 75.056174 0s92.282182-108.917583 126.734196-86.511469 34.452014 65.692609 187.763479 147.368491v137.808058s-0.307607 44.184709 56.66126 0c0 0 107.736371-83.829134 131.065306-110.504836 84.665826-6.398231 225.426913-38.537039 305.417108-153.286856 10.3233-14.765149 20.019081-36.592961 20.019082-55.209353v-0.08613zM885.539815 386.834601c-25.974358 0-47.051608-21.606335-47.051609-48.158994s21.07725-48.14669 47.051609-48.146691 47.051608 21.5079 47.051608 48.146691-21.07725 48.158995-47.051608 48.158994M1019.435108 868.424546c0-8.502265-4.454153-18.554871-9.191305-25.322231-36.765221-52.699278-101.387357-67.476731-140.268916-70.392848-10.717037-12.304291-60.192591-50.792113-60.192591-50.792112-26.171227-20.252863-26.023575 0-26.023575 0v63.305576c-70.417457 37.503479-70.417457 57.399517-86.240775 67.6736s-32.347981-16.930704-58.2116-39.730555-35.928529-15.454189-34.452015 0c1.095082 11.689076 12.439638 37.269697 17.902743 49.09412 1.008952 3.199116 1.624166 8.551482-1.574949 15.823318-5.832234 12.784158-15.355755 35.018012-16.327794 45.661224-1.439602 15.429581 8.613004 22.799851 34.452015 0s42.388282-50.029247 58.2116-39.730555 15.811014 30.170121 86.240775 67.673599v63.293273s-0.135347 20.289776 26.023575 0c0 0 49.475554-38.500126 60.192591-50.7552 38.881559-2.940726 103.528303-17.69357 140.268916-70.405153 4.737152-6.804273 9.191305-16.807661 9.191305-25.359143z m-71.598669 22.147724a22.147724 22.147724 0 1 1 21.606335-22.147724 21.889333 21.889333 0 0 1-21.606335 22.147724M414.753037 712.898309c0-8.502265-4.454153-18.554871-9.191305-25.32223-36.765221-52.699278-101.387357-67.476731-140.268916-70.392848-10.717037-12.304291-60.192591-50.792113-60.192591-50.792113-26.171227-20.252863-26.023575 0-26.023576 0v63.305576c-70.417457 37.503479-70.417457 57.399517-86.240774 67.6736S60.487894 680.427286 34.624275 657.639739s-35.928529-15.454189-34.452015 0c1.095082 11.689076 12.439638 37.269697 17.902743 49.094121 1.008952 3.199116 1.624166 8.551482-1.574949 15.823318C10.66782 735.341336 1.144299 757.57519 0.17226 768.218401c-1.439602 15.429581 8.613004 22.799851 34.452015 0s42.388282-50.029247 58.2116-39.730555 15.811014 30.170121 86.240774 67.6736v63.268663s-0.135347 20.289776 26.023576 0c0 0 49.475554-38.500126 60.192591-50.755199 38.881559-2.940726 103.528303-17.69357 140.268916-70.405153 4.737152-6.804273 9.191305-16.807661 9.191305-25.359143z m-71.598669 22.147724a21.889333 21.889333 0 0 1-21.606334-22.147724 21.852421 21.852421 0 0 1 21.606334-22.147723 21.852421 21.852421 0 0 1 21.606335 22.147723 21.889333 21.889333 0 0 1-21.606335 22.147724" p-id="17913"></path></svg>