<?xml version="1.0" standalone="no"?><!DOCTYPE svg PUBLIC "-//W3C//DTD SVG 1.1//EN" "http://www.w3.org/Graphics/SVG/1.1/DTD/svg11.dtd"><svg t="1740900855337" class="icon" viewBox="0 0 1024 1024" version="1.1" xmlns="http://www.w3.org/2000/svg" p-id="68638" xmlns:xlink="http://www.w3.org/1999/xlink" width="200" height="200"><path d="M700.3 510.9c0-103.8-84.4-188.2-188.2-188.2S324 407.2 324 510.9v243.3h-30.8v50h154.3v0.4h129.3v-0.4h154.3v-50h-30.8V510.9zM526.8 753.7h-29.3V643.8c0-8.1 6.6-14.7 14.7-14.7s14.7 6.6 14.7 14.7v109.9zM374 510.9c0-76.2 62-138.2 138.2-138.2s138.2 62 138.2 138.2v242.7h-73.5V643.8c0-35.7-29-64.7-64.7-64.7s-64.7 29-64.7 64.7v109.9H374V510.9z" p-id="68639" fill="#07fb5c"></path><path d="M807.1 162.6H668.2c-0.9-29.6-25.2-53.4-55.1-53.4H404c-29.8 0-54.2 23.8-55.1 53.4H217.1c-37.2 0-67.4 30.3-67.4 67.4v621.2c0 37.2 30.3 67.4 67.4 67.4H807c37.2 0 67.4-30.3 67.4-67.4V230c0.1-37.2-30.1-67.4-67.3-67.4z m-408.3 1.7c0-2.8 2.3-5.1 5.1-5.1h209.2c2.8 0 5.1 2.3 5.1 5.1V207c0 2.8-2.3 5.1-5.1 5.1H404c-2.8 0-5.1-2.3-5.1-5.1v-42.7z m425.7 686.9c0 9.6-7.8 17.4-17.4 17.4h-590c-9.6 0-17.4-7.8-17.4-17.4V230c0-9.6 7.8-17.4 17.4-17.4h132c2.8 27.8 26.3 49.5 54.8 49.5h209.2c28.5 0 52-21.8 54.8-49.5H807c9.6 0 17.4 7.8 17.4 17.4v621.2z" p-id="68640" fill="#07fb5c"></path></svg>