<?xml version="1.0" standalone="no"?><!DOCTYPE svg PUBLIC "-//W3C//DTD SVG 1.1//EN" "http://www.w3.org/Graphics/SVG/1.1/DTD/svg11.dtd"><svg t="1739611566032" class="icon" viewBox="0 0 1024 1024" version="1.1" xmlns="http://www.w3.org/2000/svg" p-id="3609" xmlns:xlink="http://www.w3.org/1999/xlink" width="200" height="200"><path d="M374.496 352h92.256l-42.56-42.56L374.464 352z m-107.168 7.584l182.208-156.16a96 96 0 0 1 124.928 0l182.208 156.16 0.512 0.448c8.128 7.136 11.392 16.608 10.816 25.728V736a64 64 0 0 1-64 64H320a64 64 0 0 1-64-64V385.76a31.2 31.2 0 0 1 11.328-26.176zM649.504 352L532.8 252a32 32 0 0 0-41.664 0l-18.24 15.68 84.32 84.32h92.256zM704 416H320v320h384V416zM320 608h384v64H320v-64z m64-448a32 32 0 1 1 0 64 32 32 0 0 1 0-64z m-96 64a32 32 0 1 1 0 64 32 32 0 0 1 0-64z m432-64a48 48 0 1 1 0 96 48 48 0 0 1 0-96z" p-id="3610"></path></svg>