<?xml version="1.0" standalone="no"?><!DOCTYPE svg PUBLIC "-//W3C//DTD SVG 1.1//EN" "http://www.w3.org/Graphics/SVG/1.1/DTD/svg11.dtd"><svg t="1739613056770" class="icon" viewBox="0 0 1024 1024" version="1.1" xmlns="http://www.w3.org/2000/svg" p-id="24316" xmlns:xlink="http://www.w3.org/1999/xlink" width="200" height="200"><path d="M296 370c-23.2 13.2-44.8 29-64.4 48.2l-94.6 93.6 94.6 93.6c19.4 19.2 41 35.2 64.2 48.4 40.4-34.4 66.8-85 66.8-142.2-0.2-56.8-26.2-107.2-66.6-141.6zM710 447.4L680.2 418c-59.6-59-139-91.4-223.4-91.4-29.2 0-58 4-85.6 11.6 41 46.2 66.2 107 66.2 173.4 0 66.6-25.2 127.4-66.4 173.6 27.6 7.6 56.2 11.6 85.2 11.6 84.6 0 164.2-32.6 224-91.6L710 576l177 118V329.6L710 447.4z" p-id="24317"></path></svg>