<?xml version="1.0" standalone="no"?><!DOCTYPE svg PUBLIC "-//W3C//DTD SVG 1.1//EN" "http://www.w3.org/Graphics/SVG/1.1/DTD/svg11.dtd"><svg t="1739612985815" class="icon" viewBox="0 0 1024 1024" version="1.1" xmlns="http://www.w3.org/2000/svg" p-id="17652" xmlns:xlink="http://www.w3.org/1999/xlink" width="200" height="200"><path d="M448 144a383.36 383.36 0 0 1 287.776 129.728l6.176 7.168 98.688-55.712a80 80 0 0 1 106.144 25.6l2.88 4.704A80 80 0 0 1 960 294.848V753.92a80 80 0 0 1-126.4 65.184l-80.832-57.504-6.016 7.68a383.552 383.552 0 0 1-288.032 142.528L448 912c-212.064 0-384-171.936-384-384s171.936-384 384-384z m16 96.448v575.104a287.84 287.84 0 0 0 234.56-145.44l26.272-46.208L864 722.944V322.208l-150.592 85.12-24.64-37.472A287.68 287.68 0 0 0 464 240.448z m-96 10.816a288.128 288.128 0 0 0 0 553.472zM256 464a48 48 0 1 1 0 96 48 48 0 0 1 0-96z" fill="#333333" p-id="17653"></path></svg>