<?xml version="1.0" standalone="no"?><!DOCTYPE svg PUBLIC "-//W3C//DTD SVG 1.1//EN" "http://www.w3.org/Graphics/SVG/1.1/DTD/svg11.dtd"><svg t="1739612514926" class="icon" viewBox="0 0 1666 1024" version="1.1" xmlns="http://www.w3.org/2000/svg" p-id="9397" xmlns:xlink="http://www.w3.org/1999/xlink" width="325.390625" height="200"><path d="M1642.17471 627.763031c-37.767118-123.991633-127.086872-226.888822-225.822395-308.145348-80.476214-66.248519-180.486247-100.582262-254.667942-169.223739C1106.048102 98.893328 1064.977662 39.069381 997.350591 0.053764a0.338135 0.338135 0 0 0-0.520208 0.260104c-0.364146 23.747506 10.274113 94.495826-2.601041 111.506635-27.77912 36.414576-125.838372 9.597842-175.440228 12.172873a862.557276 862.557276 0 0 0-442.385083 151.042461C123.634849 449.53969 7.810485 724.261659 0.007362 1023.641498a0.286115 0.286115 0 0 0 0.572229 0.130053c28.299328-72.829153 84.01363-226.030478 175.050071-228.215353 33.4754-0.806323 69.655883 43.021221 102.429002 53.139271 39.015618 12.01681 72.282934 16.828736 112.078864 7.543019 45.180085-10.404165 86.588661-35.426181 124.199716-62.086853a1.2485 1.2485 0 0 0-0.884354-2.262906c-86.978817 12.484998-248.919641-15.112049-266.5547-128.179309-15.086039-96.732721 76.392579-161.758751 159.079679-181.552674 160.120095-38.339347 377.515117 36.414576 486.082575 144.227733 50.382168 52.020824 35.244108 115.954416 8.739499 192.294975a0.312125 0.312125 0 0 0 0.390156 0.390156c45.596252-17.505007 100.998429-49.653876 148.727534-56.910781 87.420994-13.317331 159.443824 59.38177 238.489466 87.212911 82.166891 28.897567 199.473848 67.887175 289.053706 50.408178 120.272144-23.513412 93.50743-177.547071 64.713905-272.016887z m-142.328974 120.792352A54.127667 54.127667 0 1 1 1553.973403 694.531758a54.101657 54.101657 0 0 1-54.127667 54.023625z" p-id="9398"></path></svg>