<?xml version="1.0" standalone="no"?><!DOCTYPE svg PUBLIC "-//W3C//DTD SVG 1.1//EN" "http://www.w3.org/Graphics/SVG/1.1/DTD/svg11.dtd"><svg t="1739151993689" class="icon" viewBox="0 0 1024 1024" version="1.1" xmlns="http://www.w3.org/2000/svg" p-id="7868" xmlns:xlink="http://www.w3.org/1999/xlink" width="200" height="200"><path d="M63.8 917.4V545h60.1v312.2h776.2V545h60.1v372.4H63.8z m0 0" p-id="7869"></path><path d="M637.5 823.5c-21.6 0-42.2-6.9-59.4-19.9l-35.4-26.5c-6.7-5-14.7-7.7-23.1-7.7-8.4 0-16.4 2.7-23.1 7.7l-35.3 26.5c-17.3 13-37.8 19.9-59.4 19.9s-42.2-6.9-59.4-19.9L307 777c-6.7-5-14.7-7.7-23.1-7.7-8.4 0-16.4 2.7-23.1 7.7L215 812.4c-5.3 4-11.6 6.1-18.2 6.1-9.6 0-18.5-4.4-24.3-12.1-4.9-6.5-7-14.5-5.9-22.5 1.1-8 5.3-15.2 11.8-20l46.1-34.8c17.3-13 37.8-19.9 59.4-19.9s42.2 6.9 59.4 19.9l35.4 26.5c6.7 5 14.7 7.7 23.1 7.7 8.4 0 16.4-2.7 23.1-7.7l35.3-26.5c17.3-13 37.8-19.9 59.5-19.9 21.6 0 42.2 6.9 59.4 19.9l35.4 26.5c6.7 5 14.7 7.7 23.1 7.7 8.4 0 16.4-2.7 23.1-7.7l35.3-26.5c17.3-13 37.8-19.9 59.4-19.9s42.2 6.9 59.4 19.9l35.4 26.5c13.2 10 15.8 28.9 5.7 42.1-5.7 7.6-14.5 11.9-24 11.9-6.6 0-12.9-2.1-18.2-6.1L778.3 777c-6.7-5-14.7-7.7-23.1-7.7-8.4 0-16.4 2.7-23.1 7.7L697 803.6c-17.3 13-37.8 19.9-59.5 19.9z m0-134.7c-21.6 0-42.2-6.9-59.4-19.9l-35.4-26.5c-6.7-5-14.7-7.7-23.1-7.7-8.4 0-16.4 2.7-23.1 7.7l-35.3 26.5c-17.3 13-37.8 19.9-59.4 19.9s-42.2-6.9-59.4-19.9L307 642.4c-6.7-5-14.7-7.7-23.1-7.7-8.4 0-16.4 2.7-23.1 7.7L215.1 677c-5.3 4.1-11.6 6.2-18.3 6.2-9.5 0-18.2-4.3-24-11.9-10.1-13.2-7.5-32.2 5.7-42.3l46-34.6c17.3-13 37.8-19.9 59.4-19.9s42.2 6.9 59.4 19.9l35.4 26.5c6.7 5 14.7 7.7 23.1 7.7 8.4 0 16.4-2.7 23.1-7.7l35.3-26.5c17.3-13 37.8-19.9 59.5-19.9 21.6 0 42.2 6.9 59.4 19.9l35.4 26.5c6.7 5 14.7 7.7 23.1 7.7 8.4 0 16.4-2.7 23.1-7.7l35.3-26.5c17.3-13 37.8-19.9 59.4-19.9s42.2 6.9 59.4 19.9l35.4 26.5c13.2 10 15.8 28.9 5.7 42.1-5.7 7.6-14.5 11.9-24 11.9-6.6 0-12.9-2.1-18.2-6.1l-35.4-26.5c-6.7-5-14.7-7.7-23.1-7.7-8.4 0-16.4 2.7-23.1 7.7L697 668.9c-17.3 13-37.8 19.9-59.5 19.9z m0 0M231.3 538.3c-3.4 0-6.8-0.7-9.9-1.9-6.4-2.6-11.7-7.7-14.4-14.2l-49.5-115.5c-3.7-8.7-2.5-18.7 3.1-26.3 5-6.6 12.9-10.6 21.2-10.6 1 0 2.1 0.1 3.1 0.2l124.8 14.9c2.3 0.3 4.6 0.8 6.8 1.7h0.1c7.5 3.1 13.4 9.6 15.5 17.4 2.2 7.8 0.6 16.4-4.3 22.9l-75.3 100.7c-5 6.7-12.9 10.7-21.2 10.7z m6.2-79l20.5-27.4-34-4 13.5 31.4z m526.7-106.1M898.2 157c-5.2-12.2-15.6-21.3-28.3-25.1-30.9-9.1-92.4-24.3-164.3-25.2-0.2 2.3-0.6 4.5-1.2 6.8-23.7 84.2 15.3 175 92.5 215.9 1.5 0.8 3 1.7 4.3 2.6 48.8-52.4 80.3-107 95.7-137.1 6.1-11.9 6.5-25.7 1.3-37.9z m-110.4 61.1c-5 6.6-12.9 10.6-21.2 10.6-1 0-2.1-0.1-3.1-0.2-9.3-1.1-17.5-7.2-21.2-15.8-3.7-8.7-2.5-18.7 3.1-26.3 5-6.6 12.9-10.6 21.2-10.6 1 0 2.1 0.1 3.1 0.2 9.4 1.1 17.5 7.2 21.2 15.8 3.7 8.7 2.5 18.7-3.1 26.3z" p-id="7870"></path><path d="M646.1 266.1c-20.9-48.8-26.3-103.2-15.4-155-37.2 5.1-72.1 14.6-104.2 28.4-120.3 51.5-195.9 160.6-230.2 221-9 15.8-10.8 34.7-4.8 51.8 6 17.1 19.1 30.8 35.9 37.6 2.7 1.1 5.6 2 8.4 2.7 34 8.4 87.1 18.5 147.1 18.5 63.2 0 121-11.1 171.8-32.9 34-14.6 64.4-33.7 91.4-55-44.2-28-79.3-68.9-100-117.1z m-23.5 63.5c-1.2 9.5-7.4 17.6-16.3 21.2-8.7 3.9-18.2 5.8-27.9 5.8-9.2 0-18.2-1.7-26.7-5.2-27.1-10.8-44.8-36.6-45.2-65.8-0.4-29.1 16.7-55.4 43.5-66.9 3.4-1.5 7-2.3 10.7-2.3 5.7 0 11.2 1.8 15.7 5.2 7.6 5.7 11.7 15.1 10.5 24.5-1.2 9.4-7.4 17.6-16.2 21.2l-0.2 0.1-0.2 0.1c-6.6 2.4-11.3 8.3-12.3 15.2-1 7 2 13.9 7.7 18 3.3 2.3 7.1 3.6 11.1 3.6 2.9 0 5.8-0.7 8.4-2l0.3-0.1c3.5-1.6 7.1-2.4 10.9-2.4 5.7 0 11.1 1.8 15.7 5.2 7.7 5.7 11.7 15.1 10.5 24.6z" p-id="7871"></path></svg>