<?xml version="1.0" standalone="no"?><!DOCTYPE svg PUBLIC "-//W3C//DTD SVG 1.1//EN" "http://www.w3.org/Graphics/SVG/1.1/DTD/svg11.dtd"><svg t="1739612924821" class="icon" viewBox="0 0 1024 1024" version="1.1" xmlns="http://www.w3.org/2000/svg" p-id="14726" xmlns:xlink="http://www.w3.org/1999/xlink" width="200" height="200"><path d="M917.333333 544l64-217.6c2.133333-8.533333 0-19.2-8.533333-23.466667-8.533333-4.266667-17.066667-4.266667-25.6 0l-177.066667 136.533334-172.8-177.066667V170.666667c0-6.4-4.266667-12.8-8.533333-17.066667-6.4-4.266667-12.8-4.266667-19.2-2.133333l-283.733333 98.133333H213.333333c-6.4 0-12.8 2.133333-17.066666 8.533333l-149.333334 198.4c-6.4 8.533333-6.4 21.333333 2.133334 27.733334l46.933333 46.933333-46.933333 40.533333c-8.533333 8.533333-10.666667 21.333333-2.133334 29.866667l170.666667 202.666667c4.266667 4.266667 10.666667 8.533333 17.066667 8.533333h253.866666l211.2 64h6.4c6.4 0 12.8-2.133333 17.066667-8.533333 6.4-6.4 6.4-17.066667 2.133333-23.466667l-76.8-130.133333 119.466667-91.733334 179.2 160c6.4 6.4 17.066667 6.4 25.6 2.133334 8.533333-4.266667 12.8-14.933333 8.533333-23.466667l-64-217.6zM659.2 817.066667l-108.8-32 61.866667-46.933334 46.933333 78.933334z m123.733333-238.933334c-8.533333-6.4-19.2-6.4-27.733333 0l-249.6 192H245.333333l-151.466666-179.2 46.933333-40.533333c6.4-6.4 8.533333-10.666667 8.533333-17.066667 0-6.4-2.133333-12.8-6.4-14.933333L91.733333 469.333333l132.266667-174.933333h66.133333c2.133333 0 4.266667 0 6.4-2.133333L554.666667 200.533333v70.4c0 6.4 2.133333 10.666667 6.4 14.933334l192 198.4c8.533333 8.533333 19.2 8.533333 27.733333 2.133333l140.8-108.8-46.933333 160c-2.133333 4.266667-2.133333 8.533333 0 12.8l42.666666 149.333333-134.4-121.6z" p-id="14727"></path><path d="M234.666667 384h42.666666v64h-42.666666zM490.666667 576h-192v42.666667h140.8l-59.733334 59.733333-72.533333-36.266667-19.2 38.4 85.333333 42.666667c4.266667 2.133333 6.4 2.133333 10.666667 2.133333 6.4 0 10.666667-2.133333 14.933333-6.4l106.666667-106.666666c6.4-6.4 8.533333-14.933333 4.266667-23.466667s-10.666667-12.8-19.2-12.8z" p-id="14728"></path></svg>