<?xml version="1.0" standalone="no"?><!DOCTYPE svg PUBLIC "-//W3C//DTD SVG 1.1//EN" "http://www.w3.org/Graphics/SVG/1.1/DTD/svg11.dtd"><svg t="1739156443066" class="icon" viewBox="0 0 1024 1024" version="1.1" xmlns="http://www.w3.org/2000/svg" p-id="29651" xmlns:xlink="http://www.w3.org/1999/xlink" width="200" height="200"><path d="M406.512282 218.01472a26.20416 26.20416 0 1 1 23.87968 46.64832L347.094682 307.4048a26.20416 26.20416 0 0 1-23.87968-46.64832l83.29728-42.75712z m113.83808 65.536a26.27072 26.27072 0 1 1 24.15616 46.64832l-83.29728 42.75712a26.87488 26.87488 0 0 1-26.65472-0.83456 26.112 26.112 0 0 1-12.21632-23.6032 26.37824 26.37824 0 0 1 14.71488-22.21056z" p-id="29652"></path><path d="M726.097562 406.80448a533.02784 533.02784 0 0 0-37.76-115.5072C647.797402 201.89184 589.490842 127.75936 512.025242 83.05664 434.836122 38.6304 341.529242 26.97216 241.033882 38.6304a721.79712 721.79712 0 0 0-98.57024 18.88256l-8.05376 2.22208-14.4384 4.44416-6.656 1.9456c-4.16256 1.38752-7.2192 2.49856-9.44128 3.072l-21.93408 8.05376 4.44416 24.99072a69.9136 69.9136 0 0 0 1.664 8.05376l1.664 6.656a700.416 700.416 0 0 0 38.59456 117.44768c40.25856 93.01504 96.90112 167.98208 174.08 212.40832 77.4656 44.70272 170.75712 58.30656 268.21632 48.5888a515.86048 515.86048 0 0 0 119.1168-24.99072l44.72832 225.72032 209.92-363.72992-218.24 74.41408zM187.166362 237.71136a632.37632 632.37632 0 0 1-44.9792-125.50144 676.352 676.352 0 0 1 104.96-21.38112 442.00448 442.00448 0 0 1 26.37824-2.49856 68.096 68.096 0 0 0 0.55296-7.49568l-0.55296 7.49568c-5.2736 63.0272-33.59744 112.17408-86.35392 149.38112z m478.96064 185.47712l-10.8288 3.33312a504.47872 504.47872 0 0 1-89.9584 16.66048c-87.45984 8.60672-170.20416-3.33312-236.84096-41.64608-46.08-26.65472-84.40832-66.91328-115.78368-117.44768l-2.49856 1.664c71.35744-47.47776 110.51008-114.11968 116.06016-198.2464 59.4176 1.9456 113.5616 14.99136 159.37536 41.3696 66.6368 38.31808 118.272 104.12032 154.65472 184.08448a522.752 522.752 0 0 1 30.5408 86.3488l2.49856 11.10528 0.83456 3.33312 1.11104 6.38464-9.1648 3.072z m74.13248 34.1504l88.2944-30.26432-70.2464 121.61536-18.048-91.35104z" p-id="29653"></path><path d="M215.485082 124.14464a26.30144 26.30144 0 1 1-35.84 9.728 26.32192 26.32192 0 0 1 35.84-9.728zM23.904922 828.84608c44.9792 0 69.96992-24.43264 91.904-46.08 20.54656-20.27008 36.93056-36.352 69.96992-36.352 30.5408 0 42.496 13.60384 59.14112 32.4864 19.712 22.21568 44.14976 49.97632 98.304 49.97632 52.736 0 79.68768-26.65472 101.34528-47.75936 19.712-19.456 35.26144-34.42688 69.41184-34.42688 33.87392 0 47.20128 14.16192 65.80736 33.87392 20.27008 21.6576 45.53728 48.31232 98.57024 48.31232 52.224 0 80.24064-25.2672 104.96-47.47776 21.93408-19.456 39.14752-34.98496 72.74496-34.98496 34.432 0 48.31232 16.1024 65.536 36.64896 17.21344 20.27008 38.59456 45.53728 79.68768 45.53728a25.088 25.088 0 0 0 0-49.97632c-20.54656 0-29.98784-9.99424-46.36672-29.42976-18.88256-22.21056-44.70272-52.736-99.1232-52.736-49.69984 0-77.4656 24.70912-101.62176 46.36672-22.49216 20.27008-40.25856 36.096-76.35456 36.096-34.432 0-48.86528-15.27296-66.91328-34.42688-20.27008-21.38112-45.25568-48.03584-97.73568-48.03584-51.64544 0-78.30016 26.37824-99.95776 47.20128-19.968 19.712-35.53792 34.98496-71.08096 34.98496-34.98496 0-47.75936-14.4384-65.536-34.70848-18.88256-21.38112-42.20416-47.75936-91.904-47.75936-50.5344 0-78.30016 27.2128-100.51072 49.152-18.88256 18.60608-33.87392 33.32096-61.3632 33.32096a23.95648 23.95648 0 0 0-22.76864 24.99072 25.1136 25.1136 0 0 0 23.87968 25.2672z m0 0l977.92 110.78656c-20.54656 0-29.98784-9.99424-46.36672-29.42976-18.88256-22.21568-44.70272-52.736-99.1232-52.736-49.69984 0-77.4656 24.71424-101.62176 46.37184-22.49216 20.27008-40.25856 36.096-76.35456 36.096-34.42688 0-48.86528-15.27296-66.91328-34.42688-20.27008-21.38112-45.25568-48.03584-97.73568-48.03584-51.64544 0-78.30016 26.37824-99.95776 47.20128-19.968 19.712-35.53792 34.98496-71.08096 34.98496-34.98496 0-47.75936-14.4384-65.536-34.70848-18.88256-21.38112-42.20416-47.75936-91.904-47.75936-50.5344 0-78.30016 27.2128-100.51072 49.152-18.88256 18.60096-33.87392 33.32096-61.3632 33.32096a25.088 25.088 0 0 0 0 49.97632c44.9792 0 69.96992-24.43264 91.904-46.08 20.54656-20.27008 36.93056-36.352 69.96992-36.352 30.5408 0 42.496 13.60384 59.14112 32.4864 19.712 22.21056 44.14976 49.97632 98.304 49.97632 52.736 0 79.68768-26.65472 101.34528-47.75936 19.712-19.456 35.26144-34.42688 69.41184-34.42688 33.87392 0 47.20128 14.16192 65.80224 33.87392 20.27008 21.6576 45.53728 48.31232 98.57024 48.31232 52.224 0 80.24064-25.2672 104.96-47.47776 21.93408-19.456 39.14752-34.98496 72.74496-34.98496 34.42688 0 48.31232 16.1024 65.536 36.64896 17.21344 20.27008 38.59456 45.53728 79.68768 45.53728a23.95648 23.95648 0 0 0 22.76864-24.99072 22.016 22.016 0 0 0-21.6576-24.70912z m0 0" p-id="29654"></path></svg>