<?xml version="1.0" standalone="no"?><!DOCTYPE svg PUBLIC "-//W3C//DTD SVG 1.1//EN" "http://www.w3.org/Graphics/SVG/1.1/DTD/svg11.dtd"><svg t="1739155523052" class="icon" viewBox="0 0 1024 1024" version="1.1" xmlns="http://www.w3.org/2000/svg" p-id="21645" xmlns:xlink="http://www.w3.org/1999/xlink" width="200" height="200"><path d="M486.78842415 708.28560243c-108.53482514 0-193.50771892-73.52701215-193.50771893-167.35496195 0-79.1667343 79.45836787-167.39767598 193.50771893-167.39767597 98.38214695 0 196.22226787 60.15752719 213.55973701 131.34410619a19.63371539 19.63371539 0 0 1-38.14213754 9.27483165c-13.1588607-53.97577899-95.12409906-101.3912753-175.41759947-101.39127529-90.9057224 0-154.23881525 67.51022842-154.23881525 128.12729939 0 62.91479013 57.73608471 128.00210318 154.23881525 128.00210319 92.24163987 0 163.42821889-60.78350835 178.96875383-119.47992183a19.63371539 19.63371539 0 0 1 37.89174509 10.02748193c-22.39245122 84.88893867-115.63713388 148.84801268-216.86049892 148.84801269z" p-id="21646"></path><path d="M415.8522376 688.27482545a19.71767051 19.71767051 0 0 1-15.58324897-31.58332775c0.33434758-0.37558869 37.47344236-50.46586573 37.47344238-120.73335709 0-69.59879617-36.5131136-114.00663703-36.88870231-114.46618086a19.63371539 19.63371539 0 0 1 29.9543038-25.35886555c1.83817531 2.17252289 46.20477506 55.18650023 46.20477506 139.86628752 0 84.05527903-43.74061858 142.12423844-45.62003501 144.58839493a19.42603692 19.42603692 0 0 1-15.54053495 7.6870488z m207.58566729-239.66977998a19.63371539 19.63371539 0 0 1-17.04436267-9.81833058c-7.81224503-13.40925318-35.67650818-52.22008591-60.99265972-54.34989479-31.08254282-2.42291538-53.18188756 17.96345034-53.47499404 18.17260167a19.59247427 19.59247427 0 1 1-27.65511179-27.86573602c1.46258659-1.37863148 34.42307294-33.42003017 84.34543971-29.36809086 50.34066949 4.13589443 87.73015674 66.71633698 91.82481006 73.90260084a19.63371539 19.63371539 0 0 1-17.00312155 29.32537685z m-124.24179744 122.6127735s-6.81067517 22.09934476 25.6077851 36.55435473c25.94360561 11.48859565 58.61245836-1.83817531 65.46437465-15.41533873 7.05959474-14.24585861-46.83222913-37.05513965-46.83222913-37.05513965s-32.41846029-10.2778744-44.23993062 15.91612365z" p-id="21647"></path><path d="M355.61075529 514.06794721a23.97876117 23.97876117 0 1 0 47.95899524 0 23.97876117 23.97876117 0 1 0-47.95899524 0zM752.90259467 631.20890882a30.74672233 30.74672233 0 0 1-20.59551706-8.06263752l-58.98951997-53.2658427a19.63371539 19.63371539 0 0 1 26.32066722-29.11769837l36.63683695 33.1696377-6.64276491-22.09934477a87.43705025 87.43705025 0 0 1-1.00156989-47.29030006l3.6763506-14.53749217-35.55131195 32.62613874a19.63371539 19.63371539 0 1 1-26.57105967-28.94978813l64.87963459-59.40634979a27.36347819 27.36347819 0 0 1 45.11777715 27.02913061l-13.57716342 52.97273621a48.50396708 48.50396708 0 0 0 0.58474008 26.19399809l15.41533872 50.84145442a30.49632986 30.49632986 0 0 1-12.99095048 35.00781299 31.74976511 31.74976511 0 0 1-16.71148796 4.88854475z" p-id="21648"></path><path d="M198.95049757 998.92203308h-0.96180167a94.1622974 94.1622974 0 0 1-82.34082707-49.08576135l-14.45353704-26.11151586a25.73445425 25.73445425 0 0 1-3.17556568-14.45353706l21.72375604-315.9952962a1184.606772 1184.606772 0 0 0 0-162.46789011l-21.72522893-316.0365373a26.06880185 26.06880185 0 0 1 3.17703857-14.45500994l14.45353704-26.11004297a93.99586007 93.99586007 0 0 1 82.34082707-49.08723425c33.00320034 0.29310649 61.45367643 15.03827712 79.29193052 41.27498922a93.87066382 93.87066382 0 0 1 77.45228233-41.27498922h0.96180168a93.99586007 93.99586007 0 0 1 78.41408398 41.27498922 93.82942271 93.82942271 0 0 1 77.45228232-41.27498922 93.49507513 93.49507513 0 0 1 79.33317164 41.27498922 93.99586007 93.99586007 0 0 1 77.49499634-41.27498922c32.54365651 0.29310649 60.74226723 14.5802062 78.70571756 40.27194645a93.70422647 93.70422647 0 0 1 76.82630115-40.27194645h1.04575678a93.99586007 93.99586007 0 0 1 82.25687195 47.5009243l15.24890138 26.35896253c2.63059382 4.47024202 3.75883283 9.69166146 3.42448523 14.83207156l-21.76499717 319.58621878a1178.50750602 1178.50750602 0 0 0 0.08395514 162.0510603l21.72375604 314.69914695a25.48406177 25.48406177 0 0 1-3.42595814 14.83207155l-15.08246403 26.10857007c-17.41995138 30.20469628-48.08271857 47.33301407-83.46906606 47.58340653a93.95461894 93.95461894 0 0 1-76.78211426-40.1467502 93.91190493 93.91190493 0 0 1-77.66290657 40.35590155h-1.04575678a94.07981519 94.07981519 0 0 1-77.49352344-41.27498922 93.99586007 93.99586007 0 0 1-78.33012888 41.06583787h-1.00304277a94.07981519 94.07981519 0 0 1-77.45375522-41.10855186 94.07981519 94.07981519 0 0 1-78.41408398 41.10855186h-0.96032876a94.1622974 94.1622974 0 0 1-77.45228231-41.06436495 93.99586007 93.99586007 0 0 1-78.414084 41.31475742z m-48.25210173-93.78670871l10.69470423 19.34208181c7.64433479 13.66111854 21.47336358 21.8901934 37.09785368 22.05810364h0.45954382c15.41533872 0 29.20165349-7.93891417 36.97118453-21.38940845l15.29014249-26.36043544a26.44439055 26.44439055 0 0 1 22.93595018-13.07637847 26.11004297 26.11004297 0 0 1 29.70243846 12.61683464l14.2870997 25.77569538c7.56185258 13.78631477 21.55731869 22.01538964 37.26429102 22.14058586h0.37558869c15.58324896 0 29.45351886-7.89472727 37.2230499-21.43064958l15.12370514-26.06880182a27.0291306 27.0291306 0 0 1 22.9771913-13.07637849 26.06880185 26.06880185 0 0 1 29.65972443 12.65954865l14.24585861 25.73298137c7.60309369 13.78631477 21.55731869 22.01686253 37.22304989 22.14205875h0.4183027c15.58324896 0 29.49328708-7.89472727 37.26429102-21.43064957l15.12223226-26.07027473c4.84583072-8.47946733 13.36801206-12.32225529 22.97719129-13.0749056a26.15128407 26.15128407 0 0 1 29.70243844 12.65807578l14.41376885 26.06880184c7.60309369 13.66111854 21.34669445 21.8901934 37.01389853 22.05810365 14.95579489 0.20915136 29.65972443-7.85495906 37.47196948-21.38940846l15.24890138-26.36190833a26.15128407 26.15128407 0 0 1 21.55584581-12.99095046 26.11004297 26.11004297 0 0 1 29.78639357 12.57412065l14.24585858 25.73445424c7.64433479 13.78631477 21.51460469 22.01538964 37.2230499 22.14058587h0.45954384c15.54053495 0 29.41080486-7.89472727 37.2230499-21.43064957l11.07029293-19.09168933-21.22297112-306.76317857a1249.56741591 1249.56741591 0 0 1-0.08248221-169.19313725l21.30545333-311.56776817-11.23820318-19.46727803c-7.85348614-13.53592231-21.84895228-20.72071328-37.47344238-21.30545335a42.3192731 42.3192731 0 0 0-37.01389852 22.01538964l-14.66268843 26.27648029a25.98484671 25.98484671 0 0 1-29.78639357 12.61683467 26.06880185 26.06880185 0 0 1-21.5558458-13.03366447l-15.24890137-26.36043543c-7.85348614-13.53592231-22.18329988-20.72071328-37.47344237-21.30545333a42.27803199 42.27803199 0 0 0-37.01389855 22.01538962l-14.41229596 26.06880184a26.11004297 26.11004297 0 0 1-29.70243843 12.65807577 25.06575906 25.06575906 0 0 1-22.97719131-13.07637847l-15.29014246-26.36043543c-7.85495906-13.53592231-21.18025711-20.72071328-37.47344239-21.30545333a42.36051421 42.36051421 0 0 0-37.01389854 22.01538962l-14.45500996 26.06880184a25.98484671 25.98484671 0 0 1-29.66119731 12.65807577 26.3191943 26.3191943 0 0 1-22.97719131-13.07637847l-15.28866958-26.36043543a42.23531797 42.23531797 0 0 0-37.05661256-21.30545333h-0.37558872c-15.62449008 0.12519623-29.49328708 8.35427108-37.09785364 22.01538962l-14.45353708 26.11004296a26.15128407 26.15128407 0 0 1-29.70391133 12.61683465 25.73445425 25.73445425 0 0 1-22.93447729-13.07637847l-15.28866958-26.36043543a42.19407686 42.19407686 0 0 0-36.97265744-21.30545333h-0.50078495c-15.62596299 0.12519623-29.41227776 8.35427108-37.05661253 22.01538962l-10.56950801 19.34208181 21.26421225 308.35096138a1249.52617479 1249.52617479 0 0 1 0 169.65268108L150.69839584 905.13532437z" p-id="21649"></path><path d="M880.98865295 242.31258165H147.77469554a26.19399807 26.19399807 0 0 1 0-52.34380924h733.25519854a26.15128407 26.15128407 0 1 1-0.04124113 52.34528214z m0 591.71864594H147.77469554a26.15128407 26.15128407 0 1 1 0-52.30256812h733.25519854a26.11004297 26.11004297 0 1 1-0.04124113 52.30256812zM247.15988527 483.61285847a21.43064957 21.43064957 0 1 0 42.86129917 0 21.43064957 21.43064957 0 1 0-42.86129917 0zM247.11864417 349.00923149a33.92228799 33.92228799 0 1 0 67.84457599 0 33.92228799 33.92228799 0 1 0-67.84457599 0z" p-id="21650"></path></svg>