<?xml version="1.0" standalone="no"?><!DOCTYPE svg PUBLIC "-//W3C//DTD SVG 1.1//EN" "http://www.w3.org/Graphics/SVG/1.1/DTD/svg11.dtd"><svg t="1740900822260" class="icon" viewBox="0 0 1024 1024" version="1.1" xmlns="http://www.w3.org/2000/svg" p-id="67579" xmlns:xlink="http://www.w3.org/1999/xlink" width="200" height="200"><path d="M673.28 568.32c69.12-48.64 115.2-130.56 115.2-222.72C791.04 194.56 665.6 74.24 512 74.24c-153.6 0-279.04 122.88-279.04 273.92 0 92.16 46.08 171.52 115.2 222.72-135.68 51.2-240.64 168.96-271.36 312.32 133.12 58.88 279.04 92.16 435.2 92.16s302.08-33.28 435.2-92.16c-30.72-143.36-135.68-261.12-273.92-314.88zM174.08 832c25.6-122.88 158.72-161.28 263.68-271.36-58.88-43.52-130.56-112.64-130.56-189.44 0-130.56 46.08-235.52 220.16-235.52 135.68 0 194.56 97.28 194.56 225.28 0 79.36-69.12 151.04-128 194.56 66.56 102.4 235.52 130.56 258.56 289.28-112.64 51.2-174.08 64-307.2 64-133.12 2.56-258.56-25.6-371.2-76.8z" fill="#1296db" p-id="67580"></path></svg>