<?xml version="1.0" standalone="no"?><!DOCTYPE svg PUBLIC "-//W3C//DTD SVG 1.1//EN" "http://www.w3.org/Graphics/SVG/1.1/DTD/svg11.dtd"><svg t="1740901178570" class="icon" viewBox="0 0 1024 1024" version="1.1" xmlns="http://www.w3.org/2000/svg" p-id="74250" xmlns:xlink="http://www.w3.org/1999/xlink" width="200" height="200"><path d="M512.033257 527.122419c128.127146 0 232.366232-104.238063 232.366232-232.365208S640.160403 62.390979 512.033257 62.390979 279.667026 166.630065 279.667026 294.757211 383.906112 527.122419 512.033257 527.122419zM512.033257 126.525672c92.761684 0 168.231539 75.468832 168.231539 168.231539 0 92.761684-75.469855 168.230516-168.231539 168.230516s-168.231539-75.468832-168.231539-168.230516C343.801718 201.994504 419.271574 126.525672 512.033257 126.525672z" p-id="74251" fill="#1afa29"></path><path d="M940.253132 921.925207c-22.546505-94.66708-77.041654-180.463118-153.448858-241.588267-77.610612-62.08501-175.192068-96.278787-274.771017-96.278787-184.990225 0-351.457584 116.89636-414.228209 290.870694-5.633301 15.59621-10.372232 31.498388-14.080693 47.264467-4.054339 17.238616 6.632047 34.501792 23.871687 38.558178 2.470261 0.582261 4.941546 0.860601 7.371898 0.860601 14.543228 0 27.714202-9.959839 31.18935-24.732288 3.143597-13.366426 7.17133-26.878161 11.973706-40.171931 53.630455-148.642388 195.853643-248.514004 353.902262-248.514004 174.928055 0 325.362252 118.673843 365.825826 288.589744 4.105504 17.22736 21.383006 27.860535 38.625716 23.768333C933.715229 956.447465 944.35659 939.152567 940.253132 921.925207z" p-id="74252" fill="#1afa29"></path></svg>