<?xml version="1.0" standalone="no"?><!DOCTYPE svg PUBLIC "-//W3C//DTD SVG 1.1//EN" "http://www.w3.org/Graphics/SVG/1.1/DTD/svg11.dtd"><svg t="1739156858837" class="icon" viewBox="0 0 1024 1024" version="1.1" xmlns="http://www.w3.org/2000/svg" p-id="34241" xmlns:xlink="http://www.w3.org/1999/xlink" width="200" height="200"><path d="M247.808 771.072c33.28-20.992 79.36-20.992 113.152 0l31.744 19.968c10.752 6.656 25.088 6.656 35.84 0l31.744-19.968c33.28-20.992 79.36-20.992 113.152 0l31.744 19.968c11.264 6.656 25.088 6.656 35.84 0l31.744-19.968c33.28-20.992 79.36-20.992 113.152 0l31.744 19.968c13.824 8.704 16.896 25.6 6.144 37.376s-30.72 13.824-44.544 5.12l-31.744-19.968c-11.264-6.656-25.088-6.656-35.84 0l-31.744 19.968c-33.28 20.992-79.36 20.992-113.152 0l-31.744-19.968c-11.264-6.656-25.088-6.656-35.84 0l-31.744 19.968c-33.28 20.992-79.36 20.992-113.152 0l-31.744-19.968c-11.264-6.656-25.088-6.656-35.84 0l-41.472 26.624c-14.336 8.704-34.304 6.656-45.056-5.12-10.752-11.776-7.68-28.672 6.144-37.376 0-0.512 41.472-26.624 41.472-26.624zM206.336 632.32l41.472-26.112c33.28-20.992 79.36-20.992 113.152 0l31.744 19.968c10.752 6.656 25.088 6.656 35.84 0l31.744-19.968c33.28-20.992 79.36-20.992 113.152 0l31.744 19.968c11.264 6.656 25.088 6.656 35.84 0l31.744-19.968c33.28-20.992 79.36-20.992 113.152 0l31.744 19.968c13.824 8.704 16.896 25.6 6.144 37.376-10.752 11.776-30.72 13.824-44.544 5.12l-31.744-19.968c-11.264-6.656-25.088-6.656-35.84 0l-31.744 19.968c-33.28 20.992-79.36 20.992-113.152 0l-31.744-19.968c-11.264-6.656-25.088-6.656-35.84 0l-31.744 19.968c-33.28 20.992-79.36 20.992-113.152 0l-31.744-19.968c-11.264-6.656-25.088-6.656-35.84 0l-41.472 26.624c-14.336 8.704-34.304 6.656-45.056-5.12-10.752-12.288-8.192-28.672 6.144-37.888zM206.336 467.968l41.472-26.112c33.28-20.992 79.36-20.992 113.152 0l31.744 19.968c10.752 6.656 25.088 6.656 35.84 0l31.744-19.968c33.28-20.992 79.36-20.992 113.152 0l31.744 19.968c11.264 6.656 25.088 6.656 35.84 0l31.744-19.968c33.28-20.992 79.36-20.992 113.152 0l31.744 19.968c13.824 8.704 16.896 25.6 6.144 37.376-10.752 11.776-30.72 13.824-44.544 5.12l-31.744-19.968c-11.264-6.656-25.088-6.656-35.84 0l-31.744 19.968c-33.28 20.992-79.36 20.992-113.152 0l-31.744-19.968c-11.264-6.656-25.088-6.656-35.84 0l-31.744 19.968c-33.28 20.992-79.36 20.992-113.152 0l-31.744-20.48c-11.264-6.656-25.088-6.656-35.84 0l-41.472 26.624c-14.336 8.704-34.304 6.656-45.056-5.12-10.752-11.776-8.192-28.672 6.144-37.376z" p-id="34242"></path><path d="M868.352 64h-430.08c-15.36 0-28.16 12.8-28.16 28.16s12.8 28.16 28.16 28.16h430.08c20.48 0 37.376 16.896 37.376 37.376v708.608c0 20.48-16.896 37.376-37.376 37.376H155.648c-20.48 0-37.376-16.896-37.376-37.376V157.696c0-20.48 16.896-37.376 37.376-37.376h31.232c15.36 0 28.16-12.8 28.16-28.16s-12.8-28.16-28.16-28.16h-31.232c-51.712 0-93.696 41.984-93.696 93.696v708.608c0 51.712 41.984 93.696 93.696 93.696h712.704c51.712 0 93.696-41.984 93.696-93.696V157.696c0-51.712-41.984-93.696-93.696-93.696z" p-id="34243"></path><path d="M334.848 95.232l-23.552-31.232-23.552 31.232c-10.24 15.872-68.096 96.768-78.336 131.072-7.68 26.112-2.56 57.856 18.432 83.968 20.992 28.672 52.224 44.544 86.528 44.544h2.56c31.232 0 57.856-15.872 75.776-39.424 18.432-23.552 28.672-57.856 23.552-83.968-7.68-41.472-70.656-120.32-81.408-136.192zM348.16 281.6c-7.68 10.24-20.992 15.872-33.792 15.872-20.992 0-34.304-13.312-41.984-20.992-10.24-13.312-10.24-26.112-10.24-31.232 5.12-15.872 26.112-52.224 49.664-83.968 20.992 31.232 44.544 65.536 47.104 83.968 2.56 7.168-0.512 23.04-10.752 36.352z" p-id="34244"></path></svg>