<?xml version="1.0" standalone="no"?><!DOCTYPE svg PUBLIC "-//W3C//DTD SVG 1.1//EN" "http://www.w3.org/Graphics/SVG/1.1/DTD/svg11.dtd"><svg t="1740900491492" class="icon" viewBox="0 0 1024 1024" version="1.1" xmlns="http://www.w3.org/2000/svg" p-id="65266" xmlns:xlink="http://www.w3.org/1999/xlink" width="200" height="200"><path d="M512 952.32a440.32 440.32 0 1 0 0-880.64 440.32 440.32 0 0 0 0 880.64z m0 71.68C229.2224 1024 0 794.7776 0 512S229.2224 0 512 0s512 229.2224 512 512-229.2224 512-512 512z m5.6832-338.4832a56.8832 56.8832 0 1 0 0 113.7664 56.8832 56.8832 0 0 0 0-113.7664z m0-455.1168C486.2464 230.4 460.8 255.8464 460.8 287.2832v284.4672a56.8832 56.8832 0 0 0 113.7664 0V287.232c0-31.4368-25.4464-56.8832-56.832-56.8832z" fill="#f28e2b" p-id="65267"></path></svg>