<?xml version="1.0" standalone="no"?><!DOCTYPE svg PUBLIC "-//W3C//DTD SVG 1.1//EN" "http://www.w3.org/Graphics/SVG/1.1/DTD/svg11.dtd"><svg t="1740726431296" class="icon" viewBox="0 0 1024 1024" version="1.1" xmlns="http://www.w3.org/2000/svg" p-id="57770" xmlns:xlink="http://www.w3.org/1999/xlink" width="200" height="200"><path d="M718.336 167.936c80.896 0 176.64 72.704 176.64 276.992 0 116.224-30.208 255.488-176.64 255.488H305.664c-112.128 0-176.64-97.792-176.64-267.776 0-165.376 66.048-264.704 176.64-264.704h412.672m-14.848-77.312H320.512c-129.024 0-260.096 96.256-260.096 342.016 0 248.32 130.56 344.576 260.096 344.576h383.488c129.024 0 260.096-83.968 260.096-333.312 0-245.248-131.584-353.28-260.608-353.28z" p-id="57771" fill="#1296db"></path><path d="M108.544 584.192h-49.152c-32.768 0-59.392-26.624-59.392-59.392V385.024c0-29.184 24.064-53.248 53.248-53.248h55.296v252.416z m806.4-252.416h55.296c29.696 0 53.76 24.064 53.76 53.76v151.552c0 26.112-21.504 47.616-47.616 47.616h-60.928l-0.512-252.928z m-542.72 186.368h-22.016c-30.208 0-55.296-24.576-55.296-55.296V368.64c0-30.208 24.576-55.296 55.296-55.296h22.016c30.208 0 55.296 24.576 55.296 55.296v94.208c0.512 30.208-24.576 55.296-55.296 55.296z m306.688 5.632h-20.48c-30.72 0-55.808-25.088-55.808-55.808V375.296c0-30.72 25.088-55.808 55.808-55.808h20.48c30.72 0 55.808 25.088 55.808 55.808v92.672c0 30.72-25.088 55.808-55.808 55.808z m-24.064 409.6H369.152c-64.512 0-116.736-52.224-116.736-116.736v-4.096h517.632v4.096c1.024 65.024-51.2 116.736-115.2 116.736z" p-id="57772" fill="#1296db"></path></svg>