<?xml version="1.0" standalone="no"?><!DOCTYPE svg PUBLIC "-//W3C//DTD SVG 1.1//EN" "http://www.w3.org/Graphics/SVG/1.1/DTD/svg11.dtd"><svg t="1740901134110" class="icon" viewBox="0 0 1024 1024" version="1.1" xmlns="http://www.w3.org/2000/svg" p-id="73151" xmlns:xlink="http://www.w3.org/1999/xlink" width="200" height="200"><path d="M342.3 524.9h-92.6c-17.7 0-32-14.3-32-32s14.3-32 32-32h92.6c17.7 0 32 14.3 32 32s-14.3 32-32 32zM558.3 524.9h-92.6c-17.7 0-32-14.3-32-32s14.3-32 32-32h92.6c17.7 0 32 14.3 32 32s-14.3 32-32 32zM774.3 524.9h-92.6c-17.7 0-32-14.3-32-32s14.3-32 32-32h92.6c17.7 0 32 14.3 32 32s-14.3 32-32 32zM342.3 656h-92.6c-17.7 0-32-14.3-32-32s14.3-32 32-32h92.6c17.7 0 32 14.3 32 32s-14.3 32-32 32zM558.3 656h-92.6c-17.7 0-32-14.3-32-32s14.3-32 32-32h92.6c17.7 0 32 14.3 32 32s-14.3 32-32 32zM774.3 656h-92.6c-17.7 0-32-14.3-32-32s14.3-32 32-32h92.6c17.7 0 32 14.3 32 32s-14.3 32-32 32z" fill="#1afa29" p-id="73152"></path><path d="M342.3 787h-92.6c-17.7 0-32-14.3-32-32s14.3-32 32-32h92.6c17.7 0 32 14.3 32 32s-14.3 32-32 32zM558.3 787h-92.6c-17.7 0-32-14.3-32-32s14.3-32 32-32h92.6c17.7 0 32 14.3 32 32s-14.3 32-32 32zM774.3 787h-92.6c-17.7 0-32-14.3-32-32s14.3-32 32-32h92.6c17.7 0 32 14.3 32 32s-14.3 32-32 32z" fill="#1afa29" p-id="73153"></path><path d="M912 177.9H774.3v68.4c0 25.5-20.8 46.3-46.3 46.3s-46.3-20.8-46.3-46.3v-68.4H342.3v68.4c0 25.5-20.8 46.3-46.3 46.3s-46.3-20.8-46.3-46.3v-68.4H112c-17.6 0-32 14.4-32 32V884c0 17.6 14.4 32 32 32h800c17.6 0 32-14.4 32-32V209.9c0-17.6-14.4-32-32-32z m-45.1 637.6c0 17.6-14.4 32-32 32H189.1c-17.6 0-32-14.4-32-32V417c0-17.6 14.4-32 32-32h645.7c17.6 0 32 14.4 32 32v398.5z" fill="#1afa29" p-id="73154"></path><path d="M296 308.5c-34.3 0-62.3-27.9-62.3-62.3V138.4c0-34.3 27.9-62.3 62.3-62.3s62.3 28 62.3 62.3v107.9c0 34.3-28 62.2-62.3 62.2z m0-200.4c-16.7 0-30.3 13.6-30.3 30.3v107.9c0 16.7 13.6 30.3 30.3 30.3 16.7 0 30.3-13.6 30.3-30.3V138.4c0-16.7-13.6-30.3-30.3-30.3zM728 308.5c-34.3 0-62.3-27.9-62.3-62.3V138.4c0-34.3 27.9-62.3 62.3-62.3s62.3 28 62.3 62.3v107.9c0 34.3-28 62.2-62.3 62.2z m0-200.4c-16.7 0-30.3 13.6-30.3 30.3v107.9c0 16.7 13.6 30.3 30.3 30.3 16.7 0 30.3-13.6 30.3-30.3V138.4c0-16.7-13.6-30.3-30.3-30.3z" fill="#1afa29" p-id="73155"></path></svg>