<?xml version="1.0" standalone="no"?><!DOCTYPE svg PUBLIC "-//W3C//DTD SVG 1.1//EN" "http://www.w3.org/Graphics/SVG/1.1/DTD/svg11.dtd"><svg t="1739155252469" class="icon" viewBox="0 0 1024 1024" version="1.1" xmlns="http://www.w3.org/2000/svg" p-id="15873" xmlns:xlink="http://www.w3.org/1999/xlink" width="200" height="200"><path d="M377.924 494.689v-2.24c0-14.346 11.656-26.002 26.002-26.002h81.132v-80.688c0-14.345 11.656-26.001 26-26.001h2.243c14.349 0.448 26.004 11.656 26.004 26.001v80.688h80.24c14.345 0 26.001 11.656 26.001 26.002v2.24c0.445 14.79-11.206 25.995-25.552 25.995h-80.689v80.688c0 14.346-11.655 26.001-26.004 26.001h-2.243c-14.345 0-26-11.655-26-26.001v-80.688h-81.132c-14.346 0-26.002-11.649-26.002-25.995z m456.789-29.585v404.784c0 49.757-40.342 90.104-90.099 90.104H279.306c-49.76 0-90.103-40.347-90.103-90.104V467.791c0-46.617 12.999-92.34 38.101-132.236l41.627-66.343h-14.729c-17.484 0-31.381-13.898-31.381-31.382V95.279c0-17.481 13.897-31.377 31.381-31.377h515.514c17.481 0 31.377 13.896 31.377 31.377v142.55c0 17.484-13.896 31.382-31.377 31.382H758.37l40.932 68.134c23.311 38.55 35.411 82.931 35.411 127.759zM285.581 206.451h452.755V126.66H285.581v79.791z m-33.619 260.895v254.612h519.996V465.104c0-33.623-8.964-66.792-26.45-95.483l-60.322-100.41H342.64l-62.441 99.516c-18.379 29.585-28.237 63.652-28.237 98.619z m519.996 402.542v-85.171H251.962v85.171c0 14.791 12.1 27.344 27.344 27.344h465.309c14.79-0.001 27.343-12.104 27.343-27.344z" p-id="15874"></path></svg>