<?xml version="1.0" standalone="no"?><!DOCTYPE svg PUBLIC "-//W3C//DTD SVG 1.1//EN" "http://www.w3.org/Graphics/SVG/1.1/DTD/svg11.dtd"><svg t="1740708519281" class="icon" viewBox="0 0 1024 1024" version="1.1" xmlns="http://www.w3.org/2000/svg" p-id="33564" xmlns:xlink="http://www.w3.org/1999/xlink" width="200" height="200"><path d="M513.347368 552.421053c-5.389474 0-10.778947-1.347368-16.168421-4.042106L49.852632 322.021053c-12.126316-5.389474-18.863158-17.515789-18.863158-30.989474 0-13.473684 6.736842-25.6 18.863158-30.989474L497.178947 33.684211c9.431579-5.389474 21.557895-5.389474 30.989474 0l448.673684 226.357894c12.126316 5.389474 18.863158 17.515789 18.863158 30.989474 0 13.473684-6.736842 25.6-18.863158 30.989474L529.515789 549.726316c-5.389474 1.347368-10.778947 2.694737-16.168421 2.694737zM141.473684 291.031579l371.873684 188.631579 371.873685-188.631579-371.873685-188.631579-371.873684 188.631579z m0 0" p-id="33565" fill="#ffffff"></path><path d="M513.347368 777.431579c-5.389474 0-10.778947-1.347368-16.168421-4.042105L49.852632 545.684211c-16.168421-9.431579-22.905263-29.642105-14.821053-45.810527 8.084211-16.168421 28.294737-22.905263 45.810526-14.821052l432.505263 219.621052L945.852632 485.052632c10.778947-5.389474 24.252632-5.389474 35.031579 1.347368s16.168421 18.863158 16.168421 30.989474c-1.347368 12.126316-8.084211 24.252632-20.210527 29.642105L529.515789 773.389474c-5.389474 2.694737-10.778947 4.042105-16.168421 4.042105z m0 0" p-id="33566" fill="#ffffff"></path><path d="M514.694737 995.705263c-5.389474 0-10.778947-1.347368-16.168421-4.042105L51.2 765.305263c-10.778947-5.389474-18.863158-16.168421-20.210526-29.642105-1.347368-12.126316 5.389474-24.252632 16.168421-30.989474 10.778947-6.736842 24.252632-6.736842 35.031579-1.347368l432.505263 219.621052 432.505263-219.621052c17.515789-8.084211 37.726316-1.347368 45.810526 16.168421 8.084211 16.168421 2.694737 37.726316-14.821052 45.810526L529.515789 993.010526c-4.042105 2.694737-9.431579 2.694737-14.821052 2.694737z m0 0" p-id="33567" fill="#ffffff"></path></svg>