<?xml version="1.0" standalone="no"?><!DOCTYPE svg PUBLIC "-//W3C//DTD SVG 1.1//EN" "http://www.w3.org/Graphics/SVG/1.1/DTD/svg11.dtd"><svg t="1740899769261" class="icon" viewBox="0 0 1024 1024" version="1.1" xmlns="http://www.w3.org/2000/svg" p-id="54798" xmlns:xlink="http://www.w3.org/1999/xlink" width="200" height="200"><path d="M512 154.5l256 256V832c0 5.7 0 11.3 0.1 16.8 0.1 14.7 0.2 28.6-0.6 39.7-0.2 3-0.5 5.5-0.7 7.5H257.1c-0.2-1.9-0.5-4.1-0.6-6.8-0.8-10.9-0.7-24.5-0.5-38.9 0-5.6 0.1-11.5 0.1-17.5V410.5l255.9-256m0-90.5L128 448h64v384.7c0 70-6.7 127.3 63.3 127.3H768c70.4 0 64-57.6 64-128V448h64L512 64z" p-id="54799" fill="#1296db"></path><path d="M576 448c-24.5 0-47 9.3-64 24.6-17-15.3-39.5-24.6-64-24.6-52.8 0-96 43.2-96 96v224h64V544c0-11.4 5.9-19 9.5-22.5 3.5-3.5 11.2-9.5 22.5-9.5 11.4 0 19 5.9 22.5 9.5 3.5 3.5 9.5 11.2 9.5 22.5v224h64V544c0-11.4 5.9-19 9.5-22.5 3.5-3.5 11.2-9.5 22.5-9.5 11.4 0 19 5.9 22.5 9.5 3.5 3.5 9.5 11.2 9.5 22.5v224h64V544c0-52.8-43.2-96-96-96zM667.5 485.3c1.5-1.5 5.6-4.4 12.2-8.7 25.5-17.1 38-28.8 37.7-35.2-0.8-6.7-5-10.2-12.7-10.5-7.7 0.6-12 4.7-12.7 12.3h-22.6c0.4-15.5 12.2-23.6 35.3-24.2 22.8 0.9 34.6 8.5 35.3 22.8 0.8 9.7-10.4 21.8-33.6 36.1-8.1 5.5-13.5 9.4-16.2 11.9h50.4v11.9h-73v-16.4z" p-id="54800" fill="#1296db"></path></svg>