<?xml version="1.0" standalone="no"?><!DOCTYPE svg PUBLIC "-//W3C//DTD SVG 1.1//EN" "http://www.w3.org/Graphics/SVG/1.1/DTD/svg11.dtd"><svg t="1740885977702" class="icon" viewBox="0 0 1024 1024" version="1.1" xmlns="http://www.w3.org/2000/svg" p-id="4389" xmlns:xlink="http://www.w3.org/1999/xlink" width="200" height="200"><path d="M314.311111 708.266667c9.955556 0 17.066667-8.533333 17.066667-17.066667V322.844444c0-9.955556-8.533333-17.066667-17.066667-17.066666-9.955556 0-17.066667 8.533333-17.066667 17.066666v366.933334c-1.422222 9.955556 7.111111 18.488889 17.066667 18.488889z m110.933333-18.488889c0 9.955556 8.533333 17.066667 17.066667 17.066666h120.888889c64 0 112.355556-18.488889 146.488889-55.466666 32.711111-35.555556 49.777778-83.911111 49.777778-145.066667 0-62.577778-14.222222-110.933333-44.088889-145.066667-32.711111-36.977778-81.066667-56.888889-145.066667-56.888888H440.888889c-9.955556 0-17.066667 8.533333-17.066667 17.066666v368.355556z m142.222223-354.133334c55.466667 0 96.711111 15.644444 123.733333 45.511112 24.177778 27.022222 35.555556 69.688889 35.555556 125.155555 0 54.044444-14.222222 95.288889-41.244445 125.155556-28.444444 29.866667-71.111111 45.511111-125.155555 45.511111h-81.066667c-9.955556 0-17.066667-8.533333-17.066667-17.066667V352.711111c0-9.955556 8.533333-17.066667 17.066667-17.066667h88.177778z" p-id="4390" fill="#1296db"></path><path d="M564.622222 709.688889h-120.888889c-11.377778 0-19.911111-8.533333-19.911111-19.911111V322.844444c0-11.377778 8.533333-19.911111 19.911111-19.911111h129.422223c64 0 113.777778 18.488889 146.488888 56.888889 29.866667 34.133333 44.088889 83.911111 44.088889 146.488889 0 61.155556-17.066667 110.933333-49.777777 146.488889-35.555556 38.4-85.333333 56.888889-149.333334 56.888889z m-120.888889-402.488889c-8.533333 0-15.644444 7.111111-15.644444 15.644444v366.933334c0 8.533333 7.111111 15.644444 15.644444 15.644444h120.888889c62.577778 0 112.355556-18.488889 145.066667-55.466666 32.711111-35.555556 49.777778-83.911111 49.777778-143.644445 0-61.155556-14.222222-109.511111-44.088889-143.644444-31.288889-36.977778-79.644444-55.466667-143.644445-55.466667h-128z m-129.422222 402.488889c-11.377778 0-19.911111-8.533333-19.911111-19.911111V322.844444c0-11.377778 8.533333-19.911111 19.911111-19.911111s19.911111 8.533333 19.911111 19.911111v366.933334c-1.422222 11.377778-9.955556 19.911111-19.911111 19.911111z m0-402.488889c-8.533333 0-15.644444 7.111111-15.644444 15.644444v366.933334c0 8.533333 7.111111 15.644444 15.644444 15.644444 8.533333 0 15.644444-7.111111 15.644445-15.644444V322.844444c0-8.533333-7.111111-15.644444-15.644445-15.644444z m244.622222 372.622222h-81.066666c-11.377778 0-19.911111-8.533333-19.911111-19.911111V352.711111c0-11.377778 8.533333-19.911111 19.911111-19.911111h88.177777c56.888889 0 98.133333 15.644444 125.155556 45.511111 24.177778 27.022222 36.977778 69.688889 36.977778 126.577778 0 54.044444-14.222222 96.711111-42.666667 126.577778-28.444444 32.711111-71.111111 48.355556-126.577778 48.355555z m-81.066666-342.755555c-8.533333 0-15.644444 7.111111-15.644445 15.644444v307.2c0 8.533333 7.111111 15.644444 15.644445 15.644445h81.066666c54.044444 0 95.288889-15.644444 123.733334-45.511112 27.022222-28.444444 41.244444-71.111111 41.244444-123.733333 0-55.466667-11.377778-98.133333-35.555555-125.155555-25.6-29.866667-65.422222-44.088889-120.888889-44.088889h-89.6z" p-id="4391" fill="#1296db"></path><path d="M564.622222 716.8h-120.888889c-14.222222 0-27.022222-12.8-27.022222-27.022222V322.844444c0-14.222222 12.8-27.022222 27.022222-27.022222h129.422223c66.844444 0 118.044444 19.911111 152.177777 59.733334 31.288889 35.555556 46.933333 86.755556 46.933334 150.755555s-17.066667 115.2-52.622223 152.177778c-36.977778 38.4-89.6 58.311111-155.022222 58.311111z m-120.888889-402.488889c-4.266667 0-8.533333 4.266667-8.533333 8.533333v366.933334c0 4.266667 4.266667 8.533333 8.533333 8.533333h120.888889c61.155556 0 108.088889-17.066667 140.8-52.622222 31.288889-34.133333 46.933333-81.066667 46.933334-139.377778 0-59.733333-14.222222-106.666667-42.666667-139.377778-29.866667-35.555556-76.8-52.622222-137.955556-52.622222h-128z m-129.422222 402.488889c-14.222222 0-27.022222-12.8-27.022222-27.022222V322.844444c0-14.222222 12.8-27.022222 27.022222-27.022222 14.222222 0 27.022222 12.8 27.022222 27.022222v366.933334c0 15.644444-12.8 27.022222-27.022222 27.022222z m0-402.488889c-4.266667 0-8.533333 4.266667-8.533333 8.533333v366.933334c0 4.266667 4.266667 8.533333 8.533333 8.533333s8.533333-4.266667 8.533333-8.533333V322.844444c-1.422222-4.266667-4.266667-8.533333-8.533333-8.533333z m244.622222 372.622222h-81.066666c-14.222222 0-27.022222-12.8-27.022223-27.022222V352.711111c0-14.222222 12.8-27.022222 27.022223-27.022222h88.177777c58.311111 0 102.4 15.644444 130.844445 48.355555 25.6 28.444444 38.4 73.955556 38.4 132.266667 0 56.888889-14.222222 100.977778-44.088889 132.266667-29.866667 31.288889-73.955556 48.355556-132.266667 48.355555z m8.533334-341.333333h-88.177778c-4.266667 0-8.533333 4.266667-8.533333 8.533333v307.2c0 4.266667 4.266667 8.533333 8.533333 8.533334h81.066667c52.622222 0 92.444444-14.222222 119.466666-42.666667 25.6-27.022222 38.4-66.844444 38.4-118.044444 0-54.044444-11.377778-93.866667-34.133333-119.466667-25.6-29.866667-64-44.088889-116.622222-44.088889z" p-id="4392" fill="#1296db"></path><path d="M564.622222 719.644444h-120.888889c-15.644444 0-28.444444-12.8-28.444444-28.444444V322.844444c0-15.644444 12.8-28.444444 28.444444-28.444444h129.422223c66.844444 0 119.466667 19.911111 153.6 59.733333 31.288889 35.555556 46.933333 86.755556 46.933333 152.177778 0 64-17.066667 115.2-52.622222 153.6-38.4 39.822222-89.6 59.733333-156.444445 59.733333z m-120.888889-422.4c-14.222222 0-25.6 11.377778-25.6 25.6v366.933334c0 14.222222 11.377778 25.6 25.6 25.6h120.888889c65.422222 0 116.622222-19.911111 152.177778-58.311111C750.933333 620.088889 768 568.888889 768 506.311111c0-64-15.644444-113.777778-45.511111-149.333333-34.133333-39.822222-83.911111-58.311111-150.755556-58.311111h-128z m-129.422222 422.4c-15.644444 0-28.444444-12.8-28.444444-28.444444V322.844444c0-15.644444 12.8-28.444444 28.444444-28.444444s28.444444 12.8 28.444445 28.444444v366.933334c0 17.066667-12.8 29.866667-28.444445 29.866666z m0-422.4c-14.222222 0-25.6 11.377778-25.6 25.6v366.933334c0 14.222222 11.377778 25.6 25.6 25.6s25.6-11.377778 25.6-25.6V322.844444c-1.422222-14.222222-12.8-25.6-25.6-25.6z m250.311111 402.488889h-120.888889c-5.688889 0-9.955556-4.266667-9.955555-9.955555V322.844444c0-5.688889 4.266667-9.955556 9.955555-9.955555h129.422223c61.155556 0 108.088889 18.488889 139.377777 54.044444 28.444444 32.711111 42.666667 79.644444 42.666667 139.377778 0 59.733333-15.644444 106.666667-46.933333 140.8-35.555556 35.555556-82.488889 52.622222-143.644445 52.622222z m-120.888889-382.577777c-2.844444 0-5.688889 2.844444-5.688889 5.688888v366.933334c0 2.844444 2.844444 5.688889 5.688889 5.688889h120.888889c59.733333 0 106.666667-17.066667 139.377778-52.622223 31.288889-32.711111 46.933333-79.644444 46.933333-137.955555 0-59.733333-14.222222-105.244444-41.244444-137.955556-29.866667-34.133333-75.377778-52.622222-136.533333-52.622222h-129.422223z m-129.422222 382.577777c-5.688889 0-9.955556-4.266667-9.955555-9.955555V322.844444c0-5.688889 4.266667-9.955556 9.955555-9.955555s9.955556 4.266667 9.955556 9.955555v366.933334c0 5.688889-4.266667 9.955556-9.955556 9.955555z m0-382.577777c-2.844444 0-5.688889 2.844444-5.688889 5.688888v366.933334c0 2.844444 2.844444 5.688889 5.688889 5.688889s5.688889-2.844444 5.688889-5.688889V322.844444c0-2.844444-2.844444-5.688889-5.688889-5.688888z m244.622222 371.2h-81.066666c-15.644444 0-28.444444-12.8-28.444445-28.444445V352.711111c0-15.644444 12.8-28.444444 28.444445-28.444444h88.177777c59.733333 0 103.822222 17.066667 132.266667 48.355555 25.6 29.866667 38.4 73.955556 38.4 133.688889 0 56.888889-15.644444 100.977778-44.088889 132.266667-29.866667 34.133333-75.377778 49.777778-133.688889 49.777778z m8.533334-359.822223h-88.177778c-14.222222 0-25.6 11.377778-25.6 25.6v307.2c0 14.222222 11.377778 25.6 25.6 25.6h81.066667c56.888889 0 100.977778-15.644444 130.844444-48.355555 28.444444-31.288889 44.088889-73.955556 44.088889-130.844445 0-58.311111-12.8-102.4-38.4-130.844444-28.444444-32.711111-72.533333-48.355556-129.422222-48.355556z m-8.533334 341.333334h-81.066666c-5.688889 0-9.955556-4.266667-9.955556-9.955556V352.711111c0-5.688889 4.266667-9.955556 9.955556-9.955555h88.177777c54.044444 0 93.866667 14.222222 118.044445 42.666666 22.755556 25.6 34.133333 66.844444 34.133333 120.888889 0 52.622222-12.8 92.444444-39.822222 119.466667-25.6 29.866667-66.844444 44.088889-119.466667 44.088889z m8.533334-322.844445h-88.177778c-2.844444 0-5.688889 2.844444-5.688889 5.688889v307.2c0 2.844444 2.844444 5.688889 5.688889 5.688889h81.066667c51.2 0 91.022222-14.222222 118.044444-42.666667 25.6-27.022222 38.4-66.844444 38.4-118.044444 0-52.622222-11.377778-92.444444-34.133333-118.044445-24.177778-25.6-64-39.822222-115.2-39.822222z" p-id="4393" fill="#1296db"></path><path d="M826.311111 924.444444H209.066667c-54.044444 0-98.133333-44.088889-98.133334-98.133333V197.688889c0-54.044444 44.088889-98.133333 98.133334-98.133333h617.244444c54.044444 0 98.133333 44.088889 98.133333 98.133333v628.622222c0 54.044444-44.088889 98.133333-98.133333 98.133333zM209.066667 156.444444c-22.755556 0-41.244444 18.488889-41.244445 41.244445v628.622222c0 22.755556 18.488889 41.244444 41.244445 41.244445h617.244444c22.755556 0 41.244444-18.488889 41.244445-41.244445V197.688889c0-22.755556-18.488889-41.244444-41.244445-41.244445H209.066667z" p-id="4394" fill="#1296db"></path></svg>