<?xml version="1.0" standalone="no"?><!DOCTYPE svg PUBLIC "-//W3C//DTD SVG 1.1//EN" "http://www.w3.org/Graphics/SVG/1.1/DTD/svg11.dtd"><svg t="1741317291152" class="icon" viewBox="0 0 1025 1024" version="1.1" xmlns="http://www.w3.org/2000/svg" p-id="4857" xmlns:xlink="http://www.w3.org/1999/xlink" width="200.1953125" height="200"><path d="M861.790154 805.734557c-12.839144-12.421611-24.738838-25.991437-38.099898-37.682365-44.362895-38.934964-92.274822-68.475433-149.894394-70.145566-35.699083-1.043833-68.99735 9.812029-101.251784 27.66157 55.63629 86.116208 63.986952 171.188583-0.104383 257.096024 44.049745 22.442406 88.09949 35.177166 137.05525 22.129256-21.711723-30.062385-28.392253-63.256269-26.408971-99.372885 0.730683-12.525994 4.488481-15.970642 15.135576-13.04791 13.256677 3.653415 26.304587 8.246279 39.561264 11.899694 27.97472 7.828746 57.306422 12.73476 72.233232 49.373293 18.788991-18.788991 36.012232-35.490316 52.504791-53.131091 2.400815-2.505199 3.235882-9.707645 1.983282-13.569827-7.411213-22.442406-7.828746-44.571662 0.521916-66.596534 2.505199-6.576147 1.252599-10.542712-3.235881-14.822426z m-302.398369-63.986953c-1.774516-2.609582-8.455046-3.653415-11.273395-1.983282-43.736595 27.34842-82.254027 62.734353-116.700509 103.861366-5.532314 6.576147-5.741081 13.465443-0.208767 20.04159 36.325382 43.527829 77.034862 80.375127 123.276656 108.662997 1.461366-1.252599 2.505199-1.878899 3.235882-2.818348 59.289704-73.903364 50.521509-156.78369 1.565749-227.868706z m-36.534149 106.575332c-16.075025-0.104383-29.436086-15.970642-29.227319-34.550867 0.31315-18.788991 13.778593-33.507034 30.271152-32.985117 16.492559 0.521916 29.018552 15.761876 28.496636 34.864016-0.521916 18.162691-13.778593 32.776351-29.540469 32.671968z m437.992253-53.653007c8.455046-25.573904 14.404893-52.296024 21.398573-78.496229-30.375535 27.66157-60.229154 55.32314-86.533742 86.742508-26.72212 32.045668-25.678287 73.485831 1.670133 104.592049 26.513354 30.166769 55.531906 57.515189 83.402243 86.011825 0.521916-0.417533 1.148216-0.835066 1.670132-1.2526-7.098063-26.304587-13.04791-53.026707-21.502956-78.704995-13.152294-39.978797-13.36106-78.913761-0.104383-118.996942zM754.275373 930.159429c-14.509276-2.296432-28.601019-8.246279-42.901529-12.42161-3.131498-0.93945-6.36738-1.252599-9.812029-1.8789-2.087666 67.118451 39.352497 116.804893 120.353925 106.575332-9.185729-20.35474-17.118858-39.978797-26.826504-58.350255-9.185729-17.536391-21.502956-30.793068-40.918246-33.924567z m-7.724363-240.081549c11.690928-14.196126 23.068705-28.705403 34.9684-43.527829-34.864016-16.075025-76.512946-3.340265-97.911519 29.436086 19.415291 5.427931 38.099898 10.751478 56.993272 15.761875 1.878899 0.521916 4.801631-0.208767 6.05423-1.670132zM525.884751 799.367176c-1.565749 0-3.235882-0.104383-4.801631-0.208766-3.027115 4.801631-8.559429 9.812029-8.350663 14.404893 0.208767 4.801631 5.532314 11.899694 9.707646 13.152293 6.889297 2.087666 12.421611-4.070948 11.482161-12.317227-0.6263-5.323547-5.219164-10.020795-8.037513-15.031193z m-4.697248-191.12579c-39.978797-50.208359-52.504791-105.427115-48.851376-165.551885 1.252599-20.772273 8.350663-26.513354 27.97472-21.711723 24.425688 6.05423 48.538226 13.67421 72.963914 19.832823 51.669725 13.04791 105.844648 21.189806 133.401835 82.35841 34.65525-31.314985 66.492151-59.289704 96.972069-88.517023 4.384098-4.175331 5.949847-16.179409 3.549032-22.546789-13.67421-37.369215-14.404893-74.320897 0.93945-110.959429 4.697248-11.064628 2.296432-17.536391-5.949848-24.738838-23.590622-20.66789-45.719878-43.319062-70.249949-62.734353-81.836493-64.926402-170.249134-114.195311-276.720081-116.909276-65.865851-1.670133-127.243221 16.283792-187.054842 46.033027 102.608767 143.527013 118.057492 285.383894-0.31315 428.493374 81.314577 37.369215 162.629154 58.559021 253.025077 36.847299zM244.049889 170.14475c-3.340265-4.279715-15.657492-6.158614-20.772274-3.235881C142.484955 212.524363 71.504323 271.396534 7.830521 339.976351c-10.229562 10.960245-10.542712 22.442406-0.31315 33.507033 67.014067 72.546381 142.170031 133.923751 227.659939 181.209378 2.713965-2.087666 4.592864-3.131498 6.05423-4.697247 109.498063-123.172273 93.214271-261.375739 2.818349-379.746381z m-67.431601 177.660347c-29.749235-0.208767-54.38369-26.617737-53.861773-57.619572 0.521916-31.314985 25.469521-55.845056 55.949439-55.00999 30.584302 0.835066 53.548624 26.304587 52.504791 58.141488-0.93945 30.271152-25.365138 54.592457-54.592457 54.383691z m808.866055 108.871763c-24.216922-66.596534-24.738838-131.522936-0.31315-198.223853 15.657492-42.692762 26.513354-87.160041 39.561264-130.896636-56.158206 46.033028-111.168196 92.170438-159.810805 144.570846-49.373293 53.339857-47.39001 122.44159 3.131499 174.320082 48.955759 50.312742 102.4 95.823853 153.965341 143.42263 1.043833-0.730683 2.087666-1.356983 3.131499-2.087666-13.04791-43.840979-24.112538-88.41264-39.665648-131.209786zM728.910235 638.095005c-17.014475-33.820183-31.628135-66.596534-49.477676-97.285219-16.910092-29.331702-39.665647-51.356575-75.573496-56.471356-26.826504-3.862181-52.817941-13.778593-79.226911-20.772273-5.845464-1.565749-11.795311-2.087666-18.058308-3.131498-3.757798 111.794495 72.650765 194.674822 222.232008 177.660346zM589.45417 84.132926c21.607339-23.695005 42.692762-47.911927 64.508869-72.546382-64.404485-26.826504-141.230581-5.532314-180.791846 49.060143 35.803466 8.976962 70.458716 17.953925 105.218349 26.304587 3.444648 0.835066 8.872579-0.31315 11.169011-2.818348zM182.150602 266.281753l-8.976962-0.31315c-5.532314 8.037513-15.866259 16.388175-15.448726 24.008155 0.521916 8.037513 10.125178 19.937207 17.849541 21.92049 12.73476 3.444648 22.964322-6.889297 21.29419-20.563507-1.148216-8.872579-9.603262-16.701325-14.718043-25.051988z" fill="#ffffff" p-id="4858"></path></svg>