<?xml version="1.0" standalone="no"?><!DOCTYPE svg PUBLIC "-//W3C//DTD SVG 1.1//EN" "http://www.w3.org/Graphics/SVG/1.1/DTD/svg11.dtd"><svg t="1741420162656" class="icon" viewBox="0 0 1467 1024" version="1.1" xmlns="http://www.w3.org/2000/svg" p-id="33780" xmlns:xlink="http://www.w3.org/1999/xlink" width="286.5234375" height="200"><path d="M1297.937487 696.569988L1086.495508 411.430501 830.440643 286.54242l-289.714269-53.428468 4.84177-45.280854C739.244965 165.928136 963.610332-18.266134 1067.394413 1.635922a27.481698 27.481698 0 0 1 24.075859 24.27685c3.339842 22.238946-11.252467 35.062338-31.655499 52.727501a158.648481 158.648481 0 0 0-35.530316 38.000199 254.751927 254.751927 0 0 0 38.936154 43.743927 636.429838 636.429838 0 0 1 129.329871 171.504872 883.334137 883.334137 0 0 1 94.901502 289.814265l10.518502 75.033444z m-673.763068-469.767737l291.38419 40.706071a898.060439 898.060439 0 0 1 176.011659 116.506479 1035.170941 1035.170941 0 0 1 146.060078 165.026179 842.629066 842.629066 0 0 0-73.096536-189.403024 600.766528 600.766528 0 0 0-121.54924-161.018369 290.516232 290.516232 0 0 1-45.513843-52.32752 55.097389 55.097389 0 0 1-7.479645-35.328326 113.534619 113.534619 0 0 1 46.181811-66.985825c-85.318957-12.6554-272.350093 170.401924-411.998474 182.824335z" p-id="33781" fill="#ffffff"></path><path d="M904.171149 1023.951472a48.151718 48.151718 0 0 1-7.412649-0.534974c-103.785081-14.592308-243.766447-86.052922-415.87129-146.560054l5.041761-33.392418c110.796749-4.407791 214.246846 14.859296 307.21244-8.248609a669.021293 669.021293 0 0 0 215.481788-87.888835l0.767963-0.600971 0.768964-0.43398 261.663599-143.25421-25.210805 49.620648a543.030264 543.030264 0 0 1-149.832899 178.417544 523.963168 523.963168 0 0 1-159.215455 85.517947 218.38765 218.38765 0 0 0-46.749784 20.536027l-0.400981 0.300986c0 6.678683 14.692304 25.344799 20.269039 32.558457 12.989384 16.429221 23.140903 29.484603 15.093285 43.409942a24.108857 24.108857 0 0 1-21.604976 10.5515zM574.152789 872.248662c121.74923 40.071101 224.130378 100.177252 305.441525 113.834605a77.971305 77.971305 0 0 1-23.374892-54.529416 33.926392 33.926392 0 0 1 15.060286-23.074906 250.24414 250.24414 0 0 1 54.363423-24.509839 491.438709 491.438709 0 0 0 149.39792-80.142201 533.012739 533.012739 0 0 0 108.592854-113.53462L1027.191319 776.043221a695.535037 695.535037 0 0 1-226.035288 92.463618c-70.391664 17.565168-146.526056-3.338842-227.069238 3.839818z m315.894029 65.081915z" p-id="33782" fill="#ffffff"></path><path d="M603.805384 912.786741h-0.767963a220.123568 220.123568 0 0 1-28.250662-1.70292C453.472509 894.721597 160.284404 771.235449 45.247856 618.531686A181.25541 181.25541 0 0 1 1.369935 483.792072c11.988432-82.546088 92.998593-162.355306 227.771205-224.665353a1011.328071 1011.328071 0 0 1 403.615872-90.427714 634.459931 634.459931 0 0 1 84.384001 5.343747c99.309293 13.356367 218.887626 77.570324 336.76404 180.887427a942.639326 942.639326 0 0 1 212.843913 253.183001l196.348694-110.195778a2.938861 2.938861 0 0 1 1.034951-0.166992 3.639827 3.639827 0 0 1 3.339842 2.437885 2.938861 2.938861 0 0 1-0.399981 2.603876c-6.245704 10.018525-14.793299 23.374892-23.808872 37.533222a751.500384 751.500384 0 0 0-73.731506 128.895891 256.221857 256.221857 0 0 0 25.244804 81.110156 704.917592 704.917592 0 0 1 25.511791 69.824691 3.139851 3.139851 0 0 1-0.366983 2.403886 3.80682 3.80682 0 0 1-2.137898 1.602924h-0.833961a4.240799 4.240799 0 0 1-1.90391-0.467978l-169.166982-127.725947a1273.092665 1273.092665 0 0 1-302.670656 140.583338 1218.295262 1218.295262 0 0 1-339.401915 76.234387zM301.468713 291.1832a21.370987 21.370987 0 0 0-12.422412 3.839818 18.900104 18.900104 0 0 0-8.281607 12.990384 18.199137 18.199137 0 0 0 3.973812 14.225326c54.897398 69.222719 81.011161 129.663855 77.63832 179.685485s-37.56722 106.855936-101.146206 168.36602a18.934103 18.934103 0 0 0-5.776727 14.158329 18.699114 18.699114 0 0 0 6.477693 13.356367 21.671973 21.671973 0 0 0 14.459315 5.409744 20.737017 20.737017 0 0 0 15.126283-6.244704c70.826643-68.454756 108.726847-133.336681 112.633662-192.841861s-24.910819-128.393915-85.818933-205.030283a21.404986 21.404986 0 0 0-16.8632-7.914625z m530.541856 149.432918c-13.357367 0-26.714734 0.265987-40.372087 0.833961a771.903418 771.903418 0 0 0-192.841861 28.718638 195.880717 195.880717 0 0 0-94.334529 70.323668 98.575328 98.575328 0 0 0-13.657353 96.83841 112.198683 112.198683 0 0 0 82.246103 61.109104 198.920573 198.920573 0 0 0 41.373039 4.540785h0.233989a227.871201 227.871201 0 0 0 79.140249-14.792299 808.56868 808.56868 0 0 0 161.854329-98.10735 608.94714 608.94714 0 0 0 70.290669-60.107152c17.632164-18.432126 34.561362-39.87111 26.179759-59.372186-6.677684-15.327274-25.578788-23.574883-63.245002-27.515696a546.904081 546.904081 0 0 0-56.867305-2.469883zM14.859296 497.448425l-4.841771 32.69145a40.672072 40.672072 0 0 0 5.309749 0.399981h1.101947a46.21581 46.21581 0 0 0 45.847828-38.868158 44.177906 44.177906 0 0 0-8.548595-33.192427 46.114815 46.114815 0 0 0-30.587551-17.598165l-4.808772 32.69145a11.286465 11.286465 0 0 1 7.546643 4.341794 11.921435 11.921435 0 0 1 2.30489 9.149567 12.188422 12.188422 0 0 1-11.888436 10.451504z m148.496962-122.984172a73.463518 73.463518 0 0 0-73.196531 61.141103 68.588749 68.588749 0 0 0 13.357367 51.424562 74.131487 74.131487 0 0 0 49.621648 28.751638 72.662556 72.662556 0 0 0 10.017526 0.733965h0.467977a74.532468 74.532468 0 0 0 44.344899-14.359319 70.124677 70.124677 0 0 0 28.750637-46.748785 68.521753 68.521753 0 0 0-14.225326-52.593507 74.098488 74.098488 0 0 0-48.852684-27.64869 71.760599 71.760599 0 0 0-10.285513-0.701967zM495.64651 238.822682h-0.299986l-63.446993 6.478693a3.339842 3.339842 0 0 0-3.104853 3.605829l4.139804 37.800208a3.339842 3.339842 0 0 0 3.339842 3.005858h0.366982l63.446994-6.444695a3.339842 3.339842 0 0 0 2.269892-1.168944 3.339842 3.339842 0 0 0 0.801962-2.470883l-4.040809-37.800209a3.339842 3.339842 0 0 0-3.472835-3.005857z m45.313852-2.136899h-0.333984l-10.318511 0.800962a3.339842 3.339842 0 0 0-3.138851 3.639827l3.339842 37.801209a3.339842 3.339842 0 0 0 3.338842 3.004857h0.433979l10.318511-0.800962a3.339842 3.339842 0 0 0 2.336889-1.269939 3.339842 3.339842 0 0 0 0.767964-2.369888l-3.338842-37.801209a3.339842 3.339842 0 0 0-3.405839-3.004857z m44.812877 0.333984a3.339842 3.339842 0 0 0-3.139851 3.339842l-0.699967 37.9672a3.339842 3.339842 0 0 0 3.338841 3.338842l10.318511 0.166992a3.339842 3.339842 0 0 0 3.339842-3.339841l0.699967-38.0002a3.339842 3.339842 0 0 0-3.338842-3.339841h-10.318511z m28.717639 427.091759a143.922179 143.922179 0 0 1-31.6565-3.339842 73.062537 73.062537 0 0 1-53.427468-37.833207 63.445993 63.445993 0 0 1 10.184517-61.61008 154.87466 154.87466 0 0 1 74.832454-55.030392 690.793262 690.793262 0 0 1 167.397066-25.378797c18.032145-0.83496 34.862348-1.301938 50.088627-1.335937h0.567973a288.846311 288.846311 0 0 1 77.00335 6.679684 426.623781 426.623781 0 0 1-90.159727 80.876167 720.912834 720.912834 0 0 1-141.451296 85.050969 182.190366 182.190366 0 0 1-63.445993 11.921435z m-451.100621-180.521445a42.075006 42.075006 0 0 1-5.543738-0.366982 39.570125 39.570125 0 0 1-26.713734-15.393271 36.49827 36.49827 0 0 1-7.079664-27.482697 39.336136 39.336136 0 0 1 39.203142-32.758448h1.101948a18.533122 18.533122 0 0 1 4.340794 0.43498 39.637121 39.637121 0 0 1 26.213758 14.659305 37.333231 37.333231 0 0 1-7.81363 53.427468 41.540031 41.540031 0 0 1-23.708876 7.479645z m0-59.371186a22.005957 22.005957 0 0 0-21.938961 18.332131 20.536027 20.536027 0 0 0 3.973812 15.394271 22.438937 22.438937 0 0 0 14.926293 8.64859 29.552599 29.552599 0 0 0 3.138851 0.19999 22.005957 22.005957 0 0 0 21.93896-18.332131 20.369035 20.369035 0 0 0-4.00681-15.461267 22.138951 22.138951 0 0 0-14.893294-8.581593 20.770016 20.770016 0 0 0-3.205848-0.199991z" p-id="33783" fill="#ffffff"></path></svg>