<?xml version="1.0" standalone="no"?><!DOCTYPE svg PUBLIC "-//W3C//DTD SVG 1.1//EN" "http://www.w3.org/Graphics/SVG/1.1/DTD/svg11.dtd"><svg t="1741421566378" class="icon" viewBox="0 0 1024 1024" version="1.1" xmlns="http://www.w3.org/2000/svg" p-id="44631" xmlns:xlink="http://www.w3.org/1999/xlink" width="200" height="200"><path d="M249.856 160.5632C167.936 177.7664 40.96 240.0256 40.96 262.144c0 4.096 22.1184 19.6608 49.152 34.4064 66.3552 36.864 63.8976 47.5136-9.8304 47.5136l-59.8016 0.8192 28.672 24.576c38.5024 33.5872 131.8912 77.0048 192.512 90.112 69.632 15.5648 231.0144 13.1072 319.488-4.096 40.96-7.3728 118.784-28.672 173.6704-47.5136l99.9424-32.768 72.9088 41.7792c40.1408 22.9376 75.3664 41.7792 78.6432 41.7792 12.288 0 2.4576-21.2992-36.0448-77.824-22.9376-33.5872-40.96-63.0784-40.96-66.3552 0-4.096 18.8416-35.2256 41.7792-69.632 22.9376-35.2256 40.1408-67.9936 38.5024-72.0896-0.8192-4.096-37.6832 12.288-80.2816 36.864L830.6688 253.952l-58.9824-24.576C589.824 155.648 396.4928 130.2528 249.856 160.5632z m-40.96 65.536c27.8528 28.672-2.4576 84.3776-34.4064 63.8976-19.6608-12.288-22.9376-47.5136-6.5536-63.8976 7.3728-7.3728 16.384-13.1072 20.48-13.1072s13.1072 5.7344 20.48 13.1072zM655.36 589.0048c-11.4688 3.2768-33.5872 13.1072-48.3328 21.2992l-28.672 13.9264 22.1184 12.288c27.0336 13.9264 28.672 24.576 4.096 29.4912-15.5648 2.4576-12.288 5.7344 21.2992 21.2992 35.2256 16.384 49.152 18.8416 114.688 14.7456 40.96-1.6384 93.3888-9.8304 117.1456-18.0224 41.7792-13.9264 43.4176-13.9264 71.2704 2.4576 33.5872 20.48 36.0448 17.2032 12.288-15.5648l-16.384-23.7568 16.384-23.7568c23.7568-33.5872 21.2992-37.6832-10.6496-17.2032l-28.672 17.2032-51.6096-18.0224c-54.8864-18.8416-160.5632-27.8528-194.9696-16.384z m13.9264 45.056c-6.5536 16.384-35.2256 17.2032-41.7792 0.8192-2.4576-6.5536 1.6384-18.0224 9.0112-24.576 11.4688-12.288 14.7456-12.288 25.3952-0.8192 6.5536 6.5536 9.8304 18.0224 7.3728 24.576zM140.9024 604.5696c-57.344 20.48-64.7168 28.672-38.5024 42.5984 25.3952 13.9264 26.2144 22.9376 2.4576 26.2144-18.8416 2.4576-18.8416 2.4576 2.4576 17.2032 49.152 32.768 160.5632 33.5872 255.5904 0.8192 36.864-12.288 40.1408-12.288 67.1744 4.096 32.768 19.6608 35.2256 16.384 11.4688-16.384l-16.384-23.7568 16.384-23.7568c23.7568-32.768 21.2992-36.0448-11.4688-16.384L401.408 632.4224 350.6176 614.4c-74.5472-25.3952-155.648-28.672-209.7152-9.8304z m27.8528 22.1184c6.5536 16.384-10.6496 36.864-26.2144 31.1296-6.5536-2.4576-11.4688-13.1072-11.4688-23.7568 0-13.9264 4.9152-19.6608 16.384-19.6608 9.0112 0 18.8416 5.7344 21.2992 12.288zM348.9792 847.0528c-46.6944 17.2032-51.6096 26.2144-28.672 45.056l19.6608 16.384-24.576 0.8192h-24.576l20.48 16.384c49.152 37.6832 163.0208 42.5984 255.5904 10.6496 46.6944-16.384 47.5136-16.384 72.9088-0.8192 31.9488 19.6608 38.5024 13.9264 16.384-14.7456l-17.2032-21.2992 16.384-22.9376c22.9376-32.768 20.48-36.864-11.4688-18.0224l-28.672 17.2032-43.4176-17.2032c-56.5248-22.1184-177.7664-27.8528-222.8224-11.4688z m31.9488 29.4912c0 23.7568-26.2144 33.5872-33.5872 13.1072-7.3728-19.6608 3.2768-39.3216 18.8416-36.0448 9.8304 1.6384 14.7456 9.8304 14.7456 22.9376z" p-id="44632" fill="#ffffff"></path></svg>