<?xml version="1.0" standalone="no"?><!DOCTYPE svg PUBLIC "-//W3C//DTD SVG 1.1//EN" "http://www.w3.org/Graphics/SVG/1.1/DTD/svg11.dtd"><svg t="1739612246426" class="icon" viewBox="0 0 1366 1024" version="1.1" xmlns="http://www.w3.org/2000/svg" p-id="9110" xmlns:xlink="http://www.w3.org/1999/xlink" width="266.796875" height="200"><path d="M1304.945 433.787c-113.44-162.634-312.893-208.252-432.895-217.251-33.069-37.878-185.763-156.754-185.763-156.754-26.915-20.834-44.814-27.781-56.713-27.781-23.797 0-23.603 27.781-23.603 27.781v195.377c-217.326 115.749-217.326 177.128-266.143 208.879-7.309 4.747-14.67 6.915-22.163 6.915-42.576 0-89.602-69.693-157.473-129.545-36.173-31.891-62.339-44.672-79.717-44.676-20.971 0-29.152 18.601-26.729 44.676 3.378 36.066 38.38 115.015 55.26 151.507 3.126 9.868 4.999 26.377-4.877 48.803-18.001 39.449-47.377 108.070-50.381 140.944-2.423 26.048 5.771 44.659 26.746 44.659 17.379 0 43.534-12.772 79.702-44.659 67.856-59.935 114.883-129.542 157.452-129.542 7.505 0 14.867 2.165 22.181 6.924 48.817 31.747 48.817 93.123 266.139 208.872v195.25c0 0-0.192 27.832 23.602 27.832 11.899 0 29.798-6.953 56.716-27.832 0 0 152.692-118.811 185.752-156.627 120.009-9.063 319.516-54.622 432.906-217.251 14.625-21.003 28.379-51.873 28.379-78.249v-0.127c-0.007-26.255-13.75-57.251-28.381-78.128zM1105.226 596.338c-45.491 0-82.416-37.85-82.416-84.331 0-46.653 36.925-84.338 82.416-84.338s82.409 37.686 82.409 84.338c0 46.478-36.918 84.331-82.409 84.331zM1105.226 471.538c-21.255 0-38.55 18.15-38.55 40.466 0 22.313 17.299 40.47 38.55 40.47 21.255 0 38.544-18.157 38.544-40.47 0-22.317-17.289-40.466-38.544-40.466z" p-id="9111"></path></svg>