<?xml version="1.0" standalone="no"?><!DOCTYPE svg PUBLIC "-//W3C//DTD SVG 1.1//EN" "http://www.w3.org/Graphics/SVG/1.1/DTD/svg11.dtd"><svg t="1740708184976" class="icon" viewBox="0 0 1024 1024" version="1.1" xmlns="http://www.w3.org/2000/svg" p-id="14366" xmlns:xlink="http://www.w3.org/1999/xlink" width="200" height="200"><path d="M591.656996 605.280959a63.811635 63.811635 0 0 0-59.222933-3.656622s42.302095-4.230209 59.222933 3.656622m9.105705 65.675795a35.849233 35.849233 0 0 0-43.01908 17.781219 56.283296 56.283296 0 0 1 43.01908-17.781219z m29.468069-123.321362s-7.886831-25.23786-48.754957-35.419042c-0.215095 0 40.796427 21.294444 48.754957 35.419042z m9.750992 191.793397s-0.645286-15.486869 9.535896-21.50954a16.060456 16.060456 0 0 0-9.535896 21.50954z m155.012083-84.60419l-33.985073 23.302001a104.751459 104.751459 0 0 0 33.985073-23.302001z m26.098242 27.245417C822.024167 681.209634 776.99753 702.719174 776.99753 702.719174a112.63829 112.63829 0 0 0 44.094557-20.649158z m1.075477 15.056678l-27.962402 10.611373a55.494613 55.494613 0 0 0 27.962402-10.611373z m-43.01908-10.037785a94.140086 94.140086 0 0 0 35.06055-23.158605zM667.298877 516.303163a55.422914 55.422914 0 0 0-21.50954-45.600225S666.725289 501.963469 667.298877 516.303163z m161.464946 4.6604a7.886831 7.886831 0 0 0 7.169846-8.532117 7.95853 7.95853 0 1 0-15.845361 1.147175 7.95853 7.95853 0 0 0 8.460419 7.169847zM518.667957 618.975366a4.803797 4.803797 0 0 1 1.075477-2.724542l4.015114-5.377385a7.95853 7.95853 0 0 0 1.577367-4.6604 8.101927 8.101927 0 0 0-2.294351-5.879274l-0.788683-0.860382a12.690628 12.690628 0 0 1-3.728321-8.962308c0-12.260438 3.154733-43.01908 37.85679-78.868313a3.369828 3.369828 0 0 1 1.935859-0.860381h4.301908a8.245324 8.245324 0 0 0 4.875496-2.007557 8.532117 8.532117 0 0 0 2.939637-7.600038l-0.430191-2.939637a2.867939 2.867939 0 0 1 0.501889-2.007557c3.083034-4.6604 18.641601-24.807669 60.441807-36.207725a2.509446 2.509446 0 0 1 3.083034 1.649065 5.664179 5.664179 0 0 0 5.664179 3.871717h2.294351a5.520782 5.520782 0 0 0 4.875495-3.800019 5.950973 5.950973 0 0 1 4.517004-3.800019 252.3786 252.3786 0 0 1 138.879928 18.498205 11.041564 11.041564 0 0 0 4.23021 1.003778c15.343472 0.501889 107.547699 4.373606 154.581892 24.162383a4.445305 4.445305 0 0 1-3.226431 8.245324 435.854974 435.854974 0 0 0-130.921398-21.50954s67.038066 3.226431 98.657089 21.50954a3.871717 3.871717 0 0 1-0.93208 7.169846 4.015114 4.015114 0 0 1-2.437748 0c-7.169847-2.724542-47.966274-17.207632-68.113543-15.271773-1.720763 0 38.717172 22.369921 34.630359 34.702058 0 0-0.93208 15.845361-64.528619 22.87181a2.79624 2.79624 0 0 0-1.433969 5.018893l26.528432 20.720857a4.445305 4.445305 0 0 1-4.875496 7.169846l-36.853011-20.505761-0.93208-0.501889-21.868032-7.886832a3.154733 3.154733 0 0 0-3.441527 5.090591l17.566124 15.701964 24.30578 25.452956a4.875496 4.875496 0 0 1 0 7.169846l-0.573587 0.50189a4.947194 4.947194 0 0 1-6.09437 0L764.091806 580.831782a9.105705 9.105705 0 0 0-2.437748-1.649065l-50.977609-22.369921a5.018893 5.018893 0 0 0-2.509446-0.430191l-24.018986 2.150954a5.018893 5.018893 0 0 0-3.083034 1.505668l-7.169847 7.169846a3.513225 3.513225 0 0 0 1.433969 5.807576L699.491488 580.831782a6.022671 6.022671 0 0 1 2.36605 1.362271l27.819005 23.660494a8.173625 8.173625 0 0 1 2.007557 2.724541l6.094369 15.271774a6.596259 6.596259 0 0 1-12.188739 5.090591L720.284044 616.681015a5.305686 5.305686 0 0 0-2.079256-2.437748l-30.615245-20.505761a5.16229 5.16229 0 0 0-2.652843-0.93208l-32.407707-3.154733a7.671736 7.671736 0 0 0-4.517003 1.075477l-3.083034 1.935859a7.169847 7.169847 0 0 0-3.441527 6.739656v0.716984a7.169847 7.169847 0 0 0 7.169847 7.169847h35.849233a3.800019 3.800019 0 0 1 2.150954 0.645286l23.660494 16.275552a5.59248 5.59248 0 0 1 1.935858 2.652843l4.373607 14.339693a5.59248 5.59248 0 0 1-4.875496 7.169847 5.735877 5.735877 0 0 1-5.520782-3.226431l-3.800018-8.388721a6.596259 6.596259 0 0 0-1.362271-1.792461l-16.060457-13.479312a3.871717 3.871717 0 0 0-2.437748-0.860381l-33.554882 1.36227a7.169847 7.169847 0 0 0-2.939637 0.860382l-9.464197 5.305687A10.683071 10.683071 0 0 0 631.449644 638.190555v0.788683a10.826468 10.826468 0 0 0 13.909503 3.298129l8.747212-4.6604a11.113262 11.113262 0 0 1 6.022672-1.362271l22.656715 1.003779a10.109484 10.109484 0 0 1 9.105705 7.169846l5.879274 18.7133a5.090591 5.090591 0 0 1-9.679293 3.72832l-6.452862-12.547231a7.169847 7.169847 0 0 0-6.309465-4.158511L660.129031 649.518912a12.045342 12.045342 0 0 0-7.815133 2.652844l-2.294351 1.792461a10.037785 10.037785 0 0 0 0 15.845361l14.339693 10.75477a9.392499 9.392499 0 0 0 4.015114 1.649065l41.656809 6.739656a21.50954 21.50954 0 0 0 14.984979-3.083034l64.52862-41.011523s14.339693-9.249102 15.773662-0.573588c0 0 10.683071-11.184961 18.498204-1.290572 0 0 17.422727-1.218874 10.611373 11.256659l-6.237766 4.23021 11.400056-1.362271s11.68685 3.584923 2.007557 13.55101l-9.894388 7.169846h9.894388s12.403835 5.664179 0.860382 13.049121l-6.524561 0.430191s15.343472 8.173625-0.430191 16.992536L730.25013 745.738254a10.826468 10.826468 0 0 0-1.86416 0.860381 302.065637 302.065637 0 0 0-27.819005 17.852918c-0.430191 1.577366-47.536083 14.841582-63.022951-8.173625a8.388721 8.388721 0 0 0-7.95853-3.513225l-16.920838 2.007557a7.600037 7.600037 0 0 1-2.509446 0c-7.169847-2.079256-44.453049-14.339693-58.864441-43.879461a7.95853 7.95853 0 0 1-0.573587-4.6604l1.147175-7.169847a5.449083 5.449083 0 0 0-0.716985-3.800018 5.59248 5.59248 0 0 0-6.022671-2.581145l-3.871717 0.860381a5.879274 5.879274 0 0 1-5.449083-1.577366c-6.237767-6.237767-21.50954-26.600131-17.135934-72.41545z" fill="#ffffff" p-id="14367"></path><path d="M217.677797 61.66319c-1.86416-6.166068-5.449083-5.879274-9.750991-7.169846l-11.543453 3.513224 12.475533 5.377385-5.879274 13.622709-8.89061-3.513225c3.154733 5.807576 7.743434 10.611373 14.841582 8.460419 5.879274-1.792462 12.332136-9.177404 10.32458-15.701964zM320.493397 93.282214a159.887579 159.887579 0 0 1-15.84536 45.671922 226.638851 226.638851 0 0 1-24.951067 40.724729c-8.747213 10.826468-28.679386 26.600131-33.554882 34.271867 63.453142-20.792555 99.374074-104.464665 78.868313-172.076318-1.86416 7.600037-2.294351 39.003965-4.517004 51.4078zM416.354246 109.844559a30.40015 30.40015 0 0 0-15.486868-17.924616 147.483744 147.483744 0 0 1 7.169846 15.41517l0.716985 2.294351c8.388721 27.890703-7.169847 40.007744-35.849233 48.61156a12.690628 12.690628 0 0 0 12.977422 1.075477l7.169847-2.079256A37.068107 37.068107 0 0 0 416.354246 109.844559z m60.155013 57.358773a22.728414 22.728414 0 0 0-14.841582-15.630266c4.373606 7.169847 7.169847 6.381163 9.535896 14.698186l0.716985 2.366049c7.169847 24.377478-5.520782 39.434156-31.045436 47.177591a22.871811 22.871811 0 0 0 15.200075 0.430191c15.917059-4.875496 27.890703-24.377478 23.230303-39.792649z m-104.751458 54.275739c-8.388721 2.509446-8.89061 0-17.494426 0a29.109577 29.109577 0 0 0 28.679386 3.871717l4.588702-1.433969c16.992536-5.16229 26.600131-28.679386 21.50954-46.675702-2.294351-7.528339-3.513225-7.169847-8.101927-10.109483 7.169847 22.800112 2.581145 44.524747-17.422727 50.547418z m-55.064422 34.271866c-13.837804 4.230209-15.128376 0-25.166162 0a31.475627 31.475627 0 0 0 31.834119 5.449084c20.003872-6.022671 25.23786-24.807669 18.856697-45.958717l-2.294351 0.716985a30.83034 30.83034 0 0 1-18.641601 38.358679z m108.336382 25.166162c-5.233988 1.577366-16.275552-1.075477-22.871811-0.645286a30.973737 30.973737 0 0 0 29.539768 6.166068c23.875589-7.169847 31.260531-29.89826 23.660494-54.992723-5.879274 18.068013 1.577366 39.792649-30.328451 49.471941z m-88.834399 14.339693c4.875496 7.95853 16.705743 10.109484 27.245417 7.169847a31.045436 31.045436 0 0 0 20.003872-33.769978c-5.16229 11.471755-7.169847 22.298223-24.449177 27.532211l-2.294351 0.716985a42.302095 42.302095 0 0 1-20.505761-1.720763z m98.657089 43.01908c7.815133 2.437748 15.701964 7.886831 26.528432 4.588702l9.249102-2.796241c10.826468-3.298129 14.339693-12.188739 19.573681-18.498204v-17.566124c-4.373606 9.750991-7.169847 24.951066-21.509539 29.109577l-11.68685 3.943416c-15.486869 4.301908-21.868032-9.249102-22.154826 1.290572z m-20.720857 331.175214c-37.785092-10.539674-51.622895 52.554976-57.358773 60.370108l-13.264216-28.679386-2.150954-7.169847c-11.184961-37.139805 12.905724-55.351216 35.849233-73.490927 34.558661-27.173719 31.834119-33.339787 47.177591-67.539955-2.007557-31.403928 2.652843-49.54364-9.679293-90.268369l-1.075477-7.169846-23.302002-48.253068-59.653123 35.849233-4.875496-16.132155c-11.830247-38.645473 13.55101-87.830621 11.68685-94.355181C329.384007 306.154959 225.277835 237.39613 201.258849 222.339452 157.451086 193.660066 104.179126 144.259823 83.099777 74.640612c29.252974 4.517003 24.520875 7.169847 46.675701 21.151048l1.86416-1.577366L89.982829 47.395195a163.400804 163.400804 0 0 1 64.958811-34.773756l9.249102-2.79624c94.211784-28.679386 182.114103 11.113262 243.774784 46.460606 19.717078 11.328358 27.10202 22.44162 49.328544 30.615245 20.07557 7.169847 38.358679 8.173625 58.43425 17.207632 37.498298 16.992536 62.234268 50.188926 78.868313 105.325046-8.675514-2.652843-25.094463-7.528339-36.494519-4.086812-43.736064 13.264216-3.943416 101.88352-1.075477 146.336569 9.249102 43.01908-11.543453 98.872185-27.962402 129.989319-11.256659 21.50954-77.147549 88.475907-71.698466 106.687317L459.373326 595.171475c5.879274 19.501983 20.434063 34.200168 27.388814 57.358773 12.690628 42.015301-26.886925 82.166442-50.977609 106.042031-2.437748-11.471755 0-15.845361-3.800019-29.109577l-0.645286-2.294351c-4.947194-16.275552-13.837804-20.649158-16.705743-30.185054l-1.433969-4.588702a30.40015 30.40015 0 0 1 0.93208-22.943509z m103.389188-424.096426c-6.739656 8.962308 0 27.747306-20.075571 33.769977l-4.588701 1.362271a125.113823 125.113823 0 0 1-16.84914 2.581145c25.668051 11.543453 49.615338-7.95853 41.513412-37.713393z m-140.170501 778.64534s-24.664272-118.660961-80.015488-145.476187-121.887392-31.403928-121.887392-31.403928S85.75262 838.300973 73.707278 745.738254s52.124785-136.227085 86.038159-142.10636S287.297008 622.0584 325.799084 686.945512s43.01908 69.690909 66.751272 142.034661-15.200075 195.019827-15.200075 195.019827m67.396558-3.800019s1.075477-65.532398 27.747306-85.321174a207.925551 207.925551 0 0 1 61.732379-28.679387s46.532304-13.694407 43.592668-64.02673-41.370015-66.966367-60.083315-66.679573S452.203479 797.719641 437.863786 836.078321s-15.917059 41.298316-21.079349 82.094743S445.033633 1020.199981 445.033633 1020.199981" fill="#ffffff" p-id="14368"></path></svg>