<?xml version="1.0" standalone="no"?><!DOCTYPE svg PUBLIC "-//W3C//DTD SVG 1.1//EN" "http://www.w3.org/Graphics/SVG/1.1/DTD/svg11.dtd"><svg t="1740708290273" class="icon" viewBox="0 0 1024 1024" version="1.1" xmlns="http://www.w3.org/2000/svg" p-id="19323" xmlns:xlink="http://www.w3.org/1999/xlink" width="200" height="200"><path d="M896 258.88V160a32 32 0 0 1 64 0V810.666667a85.333333 85.333333 0 0 1-85.333333 85.333333H149.333333a85.333333 85.333333 0 0 1-85.333333-85.333333V160a32 32 0 0 1 64 0v114.346667l39.04-24.042667a105.408 105.408 0 0 1 130.730667 16.213333l38.762666 39.744c16.362667 16.789333 42.88 18.261333 61.013334 3.392l60.138666-49.365333a105.408 105.408 0 0 1 133.738667 0l60.16 49.365333c18.133333 14.869333 44.629333 13.397333 61.013333-3.392l38.741334-39.765333a105.408 105.408 0 0 1 130.730666-16.192l13.930667 8.576z m0 70.72l-45.504-27.989333a45.184 45.184 0 0 0-56.021333 6.933333l-38.762667 39.765333a105.408 105.408 0 0 1-142.357333 7.893334l-60.16-49.344a45.184 45.184 0 0 0-57.301334 0l-60.16 49.365333a105.408 105.408 0 0 1-142.336-7.914667l-38.762666-39.765333a45.184 45.184 0 0 0-56.042667-6.933333L128 345.066667V789.333333a42.666667 42.666667 0 0 0 42.666667 42.666667h682.666666a42.666667 42.666667 0 0 0 42.666667-42.666667V329.6z m-132.821333 153.301333a32 32 0 1 1 52.309333 36.864 419.392 419.392 0 0 1-59.2 67.349334 419.413333 419.413333 0 0 1 58.517333 66.389333 32 32 0 0 1-52.202666 37.013333 355.605333 355.605333 0 0 0-57.322667-63.146666C634.026667 676.16 553.6 704 471.530667 704c-90.752 0-179.562667-34.133333-256.341334-93.056a32 32 0 0 1 0.170667-50.901333C290.88 502.912 381.12 469.333333 471.530667 469.333333c81.728 0 161.984 28.224 233.770666 77.504a355.584 355.584 0 0 0 57.877334-63.936z m-316.501334 156.074667c8.277333 0.682667 16.576 1.024 24.853334 1.024 61.226667 0 122.24-18.901333 178.218666-52.906667C593.322667 552.533333 532.394667 533.333333 471.530667 533.333333c-10.133333 0-20.309333 0.512-30.485334 1.536a354.773333 354.773333 0 0 1 5.632 104.106667z m-63.232-11.84a291.989333 291.989333 0 0 0-5.162666-79.786667 383.402667 383.402667 0 0 0-86.890667 38.485334 378.005333 378.005333 0 0 0 92.053333 41.301333z" fill="#ffffff" p-id="19324"></path></svg>