<?xml version="1.0" standalone="no"?><!DOCTYPE svg PUBLIC "-//W3C//DTD SVG 1.1//EN" "http://www.w3.org/Graphics/SVG/1.1/DTD/svg11.dtd"><svg t="1741421376465" class="icon" viewBox="0 0 2184 1024" version="1.1" xmlns="http://www.w3.org/2000/svg" p-id="34475" xmlns:xlink="http://www.w3.org/1999/xlink" width="426.5625" height="200"><path d="M379.72315 175.50358c-48.267303 21.689737-164.047733 118.529833-203.608592 155.646778-30.548926 28.410501-61.097852 58.806683-91.646778 86.300716S28.868735 481.756563 0 509.861575v11.150358c2.902148 1.680191 76.372315 82.023866 84.926014 91.646778a981.536993 981.536993 0 0 0 91.646778 86.606205c45.823389 38.797136 150.606205 131.818616 203.608592 155.494034 57.126492-91.646778 109.976134-171.22673 109.976134-312.057279v-63.847256c-0.458234-132.735084-56.515513-217.355609-110.434368-303.350835z m-102.186157 323.360382H274.940334A58.959427 58.959427 0 0 1 219.952267 443.570406v-24.439141a59.72315 59.72315 0 0 1 62.930788-57.584726c36.811456 0 54.988067 39.560859 54.988067 73.011934a61.097852 61.097852 0 0 1-60.334129 64.305489zM2070.300716 577.221957c-12.830549-16.343675-53.76611-58.195704-74.844869-62.930788 4.582339-5.804296 29.326969-21.536993 38.644392-29.326969a226.367542 226.367542 0 0 0 34.673031-34.825775 454.568019 454.568019 0 0 0 52.085919-82.940334c20.46778-44.295943 61.097852-145.565632 61.097852-203.303103-23.217184 5.193317-190.778043 119.599045-219.188545 140.066826-22.911695 16.190931-198.568019 156.257757-199.789976 156.563246-5.957041-18.787589-133.804296-134.109785-157.785203-154.424821a1590.682578 1590.682578 0 0 0-180.391408-135.178998C1368.286396 135.942721 1281.527446 84.926014 1212.792363 61.708831c-41.852029-13.747017-77.136038-26.119332-123.723151-39.25537-21.995227-6.26253-44.754177-8.553699-67.818615-13.594272-10.997613-2.443914-71.789976-6.720764-76.372315-8.859189h-91.646778c-1.527446 1.680191-104.782816 16.801909-114.558473 18.4821A722.940334 722.940334 0 0 0 636.334129 46.434368C613.116945 56.057279 458.23389 117.460621 458.23389 129.069212c0 0 44.601432 68.887828 50.252984 79.274463A700.02864 700.02864 0 0 1 549.880668 297.699284a643.360382 643.360382 0 0 1 37.116945 213.842482 641.527446 641.527446 0 0 1-37.727923 215.980907 667.799523 667.799523 0 0 1-39.866349 90.272076c-8.095465 16.038186-49.794749 72.706444-50.711217 81.107399 11.455847 2.596659 68.887828 34.673031 86.453461 42.157518 30.548926 13.136038 62.01432 26.424821 94.70167 37.26969C693.155131 996.9642 789.231504 1024 861.632458 1024h67.971361C1119.159905 1024 1309.785203 926.396181 1420.52506 855.980907a1647.809069 1647.809069 0 0 0 183.293556-135.178998 1036.830549 1036.830549 0 0 0 82.634845-76.372315c8.095465-8.859189 74.844869-76.372315 78.968973-79.427207 15.274463 9.011933 79.274463 63.694511 97.603819 79.274463 32.840095 27.799523 68.429594 49.794749 100.811456 76.372315 38.797136 31.618138 171.990453 120.515513 217.966587 141.136038 0-52.238663-39.408115-162.97852-59.417661-202.23389a480.076372 480.076372 0 0 0-52.085919-82.329356z m-643.818616 126.930788a916.46778 916.46778 0 0 1-116.696897 89.508353 647.484487 647.484487 0 0 1-336.038186 94.854415c-66.749403 0-195.97136-23.217184-219.952268-50.863962 140.830549 0 324.429594-50.100239 427.684965-85.536993 118.682578-40.782816 236.601432-103.560859 336.038186-160.381861-5.346062 21.078759-71.942721 96.229117-91.0358 112.420048z m-71.026253-357.26969a1303.369928 1303.369928 0 0 0-173.976133-74.23389 1779.016706 1779.016706 0 0 0-198.568019-55.446301c-49.794749-10.539379-168.019093-30.548926-225.756564-30.548926C774.873508 165.880668 890.501193 138.081146 940.143198 138.081146h62.778043c118.377088 0 246.682578 54.988067 314.959427 98.97852a632.515513 632.515513 0 0 1 201.011933 195.513126c-10.692124-2.596659-140.52506-73.775656-163.436754-85.689737z" fill="#ffffff" p-id="34476"></path></svg>