<?xml version="1.0" standalone="no"?><!DOCTYPE svg PUBLIC "-//W3C//DTD SVG 1.1//EN" "http://www.w3.org/Graphics/SVG/1.1/DTD/svg11.dtd"><svg t="1741421712763" class="icon" viewBox="0 0 1024 1024" version="1.1" xmlns="http://www.w3.org/2000/svg" p-id="44813" xmlns:xlink="http://www.w3.org/1999/xlink" width="200" height="200"><path d="M386.792727 810.030545h31.185455v31.185455h-31.185455v-31.185455z m62.370909 0h31.185455v31.185455h-31.185455v-31.185455z m62.370909 0h31.185455v31.185455h-31.185455v-31.185455z m62.557091 0h31.185455v31.185455h-31.185455v-31.185455z m62.370909 0h31.185455v31.185455h-31.185455v-31.185455zM386.792727 685.242182h31.185455v31.185454h-31.185455v-31.185454z m62.417455 0h31.185454v31.185454h-31.185454v-31.185454z m62.370909 0h31.185454v31.185454h-31.185454v-31.185454z m62.557091 0h31.185454v31.185454h-31.185454v-31.185454z m62.370909 0h31.185454v31.185454h-31.185454v-31.185454z m-280.901818 62.370909h31.185454v31.185454h-31.185454v-31.185454z m62.370909 0h31.232v31.185454h-31.185455v-31.185454z m62.417454 0h31.185455v31.185454h-31.185455v-31.185454z m62.370909 0h31.232v31.185454h-31.185454v-31.185454z m62.557091 0h31.185455v31.185454h-31.185455v-31.185454z m202.798546 0a15.592727 15.592727 0 1 1 0-31.185455 15.592727 15.592727 0 0 1 0 31.185455z m0-62.370909c-25.879273 0-46.824727 21.038545-46.824727 46.778182a46.871273 46.871273 0 0 0 93.556363 0 46.778182 46.778182 0 0 0-46.731636-46.778182z m-13.963637 187.298909c-7.726545-1.210182-95.232-16.896-95.232-109.288727 0-30.906182 12.753455-56.785455 24.762182-65.349819l-18.338909-25.320727c-22.574545 16.290909-37.608727 52.689455-37.608727 90.670546 0 61.533091 32.116364 98.909091 66.56 119.621818-29.602909 3.537455-61.998545 5.259636-97.745455 5.259636-174.08 0-279.645091-38.632727-340.200727-124.788363 60.555636-86.295273 166.167273-124.788364 340.154182-124.788364 168.122182 0 263.121455 36.305455 324.561454 124.788364-38.818909 55.947636-91.229091 90.996364-166.912 109.195636z m-190.138181 88.436364a17.454545 17.454545 0 0 1-29.789091-12.334546v-30.952727c21.271273 1.210182 42.216727 1.768727 62.370909 1.768727l9.309091-0.093091-41.890909 41.658182z m-45.521455-384.605091a16.058182 16.058182 0 0 1 28.625455-10.053819l32.721454 41.006546c-20.014545 0.232727-40.494545 1.024-61.346909 2.513454v-33.512727z m-435.479273 260.701091c20.48-23.319273 29.696-53.341091 29.696-73.728 0-20.386909-9.309091-50.408727-29.696-73.728 58.600727 7.726545 102.539636 27.601455 135.726546 73.728-33.186909 46.08-77.125818 66.001455-135.726546 73.728z m869.934546-82.245819c-79.034182-122.274909-210.478545-145.082182-333.218909-147.362909l-48.407273-60.555636a47.243636 47.243636 0 0 0-84.107636 29.463273v36.538181c-93.370182 11.031273-187.578182 42.123636-249.716364 123.717819-53.806545-68.096-130.327273-82.571636-234.123636-82.571637v31.185455c59.578182 0 78.010182 57.157818 78.010181 78.010182 0 20.805818-18.525091 77.963636-78.010181 77.963636v31.185455c103.796364 0 180.224-14.475636 234.123636-82.525091 65.629091 86.062545 166.912 115.898182 265.309091 125.346909v33.373091a48.826182 48.826182 0 0 0 83.223273 34.443636l65.163636-65.117091c113.338182-5.771636 229.469091-34.350545 301.847273-146.292364l5.445818-8.517818-5.585455-8.285091z m-345.413818-448.698181l-140.381091 140.427636-22.062546-22.062546 140.427637-140.474181 22.016 22.109091z m-62.370909-46.778182L397.730909 446.557091l-22.016-22.062546 187.298909-187.298909 22.016 22.155637z m-100.165819-53.341091l22.016 22.016-109.195636 109.335273-22.016-22.062546 109.195636-109.288727zM215.04 279.552a15.592727 15.592727 0 1 1 0 31.185455 15.592727 15.592727 0 0 1 0-31.185455z m0 62.370909c25.879273 0 46.824727-21.038545 46.824727-46.778182 0-25.879273-21.085091-46.824727-46.824727-46.824727-25.739636 0-46.778182 21.038545-46.778182 46.824727 0 25.739636 21.038545 46.778182 46.778182 46.778182z m171.752727-187.298909c137.867636 0 267.264 65.536 340.107637 171.706182C653.963636 432.407273 524.660364 498.036364 386.792727 498.036364a402.292364 402.292364 0 0 1-101.236363-12.893091C315.205818 455.726545 355.607273 401.687273 355.607273 326.330182c0-32.861091-2.048-67.770182-17.035637-100.165818l-28.346181 13.125818c11.776 25.506909 14.196364 53.201455 14.196363 87.04 0 75.031273-49.012364 126.976-73.309091 148.014545-75.729455-27.461818-141.265455-78.103273-188.834909-148.014545 74.286545-109.335273 192-171.752727 324.514909-171.752727z m77.963637-63.301818v38.865454a471.970909 471.970909 0 0 0-46.545455-5.585454l46.545455-33.28zM449.163636 563.525818l-55.202909-34.443636a464.663273 464.663273 0 0 0 55.202909-4.189091v38.632727z m437.061819-342.574545c-20.573091 29.509818-31.232 68.002909-31.232 105.332363 0 37.282909 10.705455 75.776 31.185454 105.239273-46.452364-20.293818-88.017455-55.947636-121.762909-105.239273 33.745455-49.198545 75.310545-84.898909 121.762909-105.285818zM329.355636 525.451636l150.946909 94.394182v-100.258909c107.380364-22.062545 203.124364-81.082182 265.216-165.841454 60.509091 83.130182 142.894545 128.651636 234.123637 128.651636v-31.185455c-60.788364 0-93.602909-64.418909-93.602909-124.834909 0-60.509091 32.814545-124.788364 93.556363-124.788363v-31.185455c-91.182545 0-173.521455 45.474909-234.077091 128.605091-59.019636-80.616727-148.573091-138.146909-249.623272-162.443636V30.673455l-130.792728 93.416727C227.281455 130.606545 106.123636 200.331636 30.254545 317.812364l-5.445818 8.517818 5.445818 8.517818c69.259636 107.101091 176.314182 174.545455 299.147637 190.557091z" fill="#ffffff" p-id="44814"></path></svg>