<?xml version="1.0" standalone="no"?><!DOCTYPE svg PUBLIC "-//W3C//DTD SVG 1.1//EN" "http://www.w3.org/Graphics/SVG/1.1/DTD/svg11.dtd"><svg t="1740706985287" class="icon" viewBox="0 0 1478 1024" version="1.1" xmlns="http://www.w3.org/2000/svg" p-id="6131" xmlns:xlink="http://www.w3.org/1999/xlink" width="288.671875" height="200"><path d="M1114.712426 1.048038c45.092589-3.150574 89.594445 0.787643 133.111747 12.011563 43.517302 11.22392 82.308743 25.204591 116.177412 41.942015 33.868669 16.737424 61.23928 34.459402 82.308743 53.165934 20.872552 18.903443 31.505739 34.656313 31.505739 47.65243 0 12.996117-8.073346 20.675641-24.220037 23.432393-16.146691 2.756752-36.2316 5.119683-60.451637 7.285702-24.220037 2.16602-50.803004 6.104237-79.748902 12.011563-28.945898 5.907326-56.513419 19.100354-82.308743 39.579085-17.131246 12.996117-33.671759 27.1737-49.227717 42.729658-15.555959 15.555959-31.111917 30.718095-46.864787 45.092589-15.555959 14.571404-31.70265 27.961343-48.440074 40.366728-16.737424 12.405385-34.656313 21.857106-53.953578 28.158254-9.648633 3.150574-21.463285 6.498059-35.443956 9.648633-13.980672 3.150574-28.748987 3.938217-44.304945 2.36293-15.555959-1.575287-31.70265-6.69497-48.440074-15.359048C887.477284 382.858212 871.527504 368.286808 856.562278 348.004989 846.913645 360.804195 838.446478 376.163243 831.554597 393.885221c-7.088791 17.721978-13.193028 36.822332-18.509622 57.301063-5.316593 20.47873-10.042454 41.745104-13.783761 63.799121C795.519909 537.039422 792.566246 557.715064 790.400226 577.012329c-2.16602 16.146691-3.741307 36.2316-4.922772 60.451637-0.984554 24.220037-1.378376 48.046252-0.787643 71.872467 0.590733 23.629304 1.969109 45.486411 3.938217 65.374408 2.16602 19.887998 5.316593 34.06558 9.648633 42.729658 5.316593 9.648633 8.073346 17.721978 8.073346 24.220037 0 5.316593-2.756752 10.436276-8.073346 15.359048-5.316593 4.922772-15.555959 7.285702-30.718095 7.285702-17.131246 0-28.748987-2.36293-34.656313-7.285702-5.907326-4.922772-8.860989-10.042454-8.860989-15.359048-0.984554-6.498059 0.984554-13.980672 6.498059-22.64475 5.316593-10.830098 8.860989-23.432393 10.436276-38.003798 1.575287-14.571404 2.16602-30.127363 1.575287-46.864787-0.590733-16.737424-1.378376-33.671759-2.36293-50.803004-0.984554-17.131246-1.575287-33.868669-1.575287-50.015361C721.678333 599.066346 704.940909 569.923537 688.794218 546.294233c-16.146691-23.629304-33.868669-46.274054-53.165934-67.737339-11.814652 25.795324-25.598413 45.092589-41.154372 58.088706-15.555959 12.996117-31.505739 21.857106-47.65243 26.582967-16.146691 4.922772-31.505739 7.088791-45.880232 6.498059-14.571404-0.590733-27.1737-1.969109-38.003798-3.938217-19.297265-3.150574-37.609976-9.451722-54.938132-18.509622-17.131246-9.0579-34.459402-19.297265-51.590648-30.718095-17.131246-11.22392-34.656313-23.432393-52.378291-36.2316-17.721978-12.996117-35.837778-24.220037-53.953578-33.868669-27.961343-16.146691-56.71033-24.810769-86.24696-25.795324-29.53663-0.984554-56.513419-0.196911-80.733456 2.36293-24.220037 2.756752-44.108035 3.741307-59.663993 3.150574-15.555959-0.590733-23.432393-7.876435-23.432393-21.857106 0-13.980672 8.860989-31.70265 26.582967-53.165934 17.721978-21.463285 41.351282-42.729658 70.887913-63.799121 29.53663-20.872552 64.192943-39.775995 103.968939-56.513419s81.71801-27.1737 125.826045-31.505739c67.737339-6.498059 123.856936-2.953663 168.555703 10.436276 44.698767 13.389939 79.551991 32.490293 104.756582 57.301063C626.176562 292.082302 641.929431 320.437467 648.42749 352.730849c6.498059 32.293382 5.316593 64.586765-3.150574 96.880147 34.459402 31.111917 68.328071 70.887913 101.606008 119.327986C752.199517 516.16687 765.589457 463.000936 787.249652 409.244269c8.664078-18.312711 16.737424-33.868669 24.220037-46.864787 7.482613-12.996117 16.737424-26.976789 27.370611-41.942015C821.512143 289.32555 812.651154 256.047613 812.257332 220.603657c-0.590733-35.443956 9.648633-68.918804 30.718095-100.030721 21.069463-31.111917 53.559756-57.891795 97.667791-79.945813C984.554342 18.573106 1042.643048 5.380078 1114.712426 1.048038L1114.712426 1.048038zM633.856086 444.688225C573.798271 393.097577 510.19606 359.819641 443.640187 344.657504c-66.752784-14.965226-135.474677-13.389939-206.559501 4.922772-2.16602 0-2.756752 0.196911-1.575287 0.787643 0.984554 0.590733 2.756752 0.787643 4.922772 0.787643 31.111917-3.150574 62.814567-4.52895 95.107949-3.938217 32.293382 0.590733 64.783676 5.316593 97.667791 14.571404 32.884115 9.0579 65.374408 22.64475 97.667791 40.366728 32.293382 17.721978 63.996032 41.745104 95.107949 71.872467L633.856086 444.688225 633.856086 444.688225zM1225.967067 138.294914c2.16602 0 3.741307-0.196911 4.922772-0.787643 0.984554-0.590733 0-0.787643-3.150574-0.787643-78.567437-7.482613-149.455349 4.52895-212.860649 36.2316-63.4053 31.70265-119.327986 78.173615-167.76806 139.609806l16.146691 27.370611c28.945898-39.775995 58.87635-72.66011 89.594445-98.455434 30.718095-25.795324 61.830013-46.274054 93.532663-61.23928 31.70265-14.965226 62.617656-25.598413 92.745019-31.505739S1198.005724 139.279468 1225.967067 138.294914L1225.967067 138.294914zM383.976193 962.563809c-8.664078-7.482613-5.907326-16.343602 8.073346-26.582967 13.980672-10.239365 34.459402-20.675641 61.23928-31.505739 26.976789-10.830098 57.301063-21.857106 91.169732-33.081026 33.868669-11.22392 66.358963-21.266374 97.667791-29.930452 13.980672-4.332039 25.00768-3.938217 33.081026 0.787643 8.073346 4.922772 15.555959 11.027009 22.64475 18.509622 7.088791 7.482613 15.555959 14.768315 25.795324 21.857106 10.239365 7.088791 25.00768 10.436276 44.304945 10.436276 19.297265 0 34.06558-3.544396 44.304945-10.436276 10.239365-6.89188 19.100354-13.980672 26.582967-20.872552 7.482613-7.088791 14.965226-12.996117 22.64475-17.721978 7.482613-4.922772 18.312711-5.710415 32.293382-2.36293 31.111917 8.664078 63.996032 18.903443 98.455434 30.718095 34.459402 11.814652 65.374408 23.432393 92.745019 34.656313 27.370611 11.22392 48.046252 22.054017 62.026924 32.293382 13.980672 10.239365 15.555959 17.918889 4.922772 23.432393-25.795324 13.980672-60.451637 25.598413-103.968939 34.656313-43.517302 9.0579-90.77591 15.94978-141.972736 20.084909-50.999915 4.332039-103.772028 6.498059-158.119427 6.498059-54.3474 0-105.741136-2.36293-153.984299-7.285702-48.440074-4.922772-91.366643-11.814652-128.976619-20.872552C426.902763 986.390024 400.122885 975.363015 383.976193 962.563809L383.976193 962.563809z" fill="#ffffff" p-id="6132"></path></svg>