<?xml version="1.0" standalone="no"?><!DOCTYPE svg PUBLIC "-//W3C//DTD SVG 1.1//EN" "http://www.w3.org/Graphics/SVG/1.1/DTD/svg11.dtd"><svg t="1740901224275" class="icon" viewBox="0 0 1024 1024" version="1.1" xmlns="http://www.w3.org/2000/svg" p-id="75383" xmlns:xlink="http://www.w3.org/1999/xlink" width="200" height="200"><path d="M658.01408 796.288l176.448-264.768a24.96 24.96 0 0 0 0-27.776l-176.448-264.832 55.68-83.584 241.536 362.24-241.536 362.304-55.68-83.584z m-130.048 83.584L456.67008 774.528l161.088-243.008a24.96 24.96 0 0 0-0.128-27.776L456.73408 263.68l71.232-105.344 241.472 362.304-241.472 359.168z m-216.896 0l-241.472-362.24 241.536-362.24 241.472 362.24-241.536 362.24zM692.83008 75.136L620.76608 183.232 548.83008 75.264a25.088 25.088 0 0 0-41.728 0.128l-87.68 132.48-87.424-132.48a24.96 24.96 0 0 0-41.792-0.128L4.51008 503.744a25.216 25.216 0 0 0 0 27.776l285.888 428.736a24.96 24.96 0 0 0 41.6 0l87.488-129.92 87.488 129.92a24.96 24.96 0 0 0 41.6 0l72.256-108.288 72 108.16a25.152 25.152 0 0 0 41.728 0l285.568-428.608a24.96 24.96 0 0 0 0-27.776l-285.44-428.608a25.152 25.152 0 0 0-41.792 0h-0.128z" p-id="75384" fill="#1afa29"></path></svg>