<?xml version="1.0" standalone="no"?><!DOCTYPE svg PUBLIC "-//W3C//DTD SVG 1.1//EN" "http://www.w3.org/Graphics/SVG/1.1/DTD/svg11.dtd"><svg t="1740901013356" class="icon" viewBox="0 0 1024 1024" version="1.1" xmlns="http://www.w3.org/2000/svg" p-id="69875" xmlns:xlink="http://www.w3.org/1999/xlink" width="200" height="200"><path d="M989.344627 781.994667H939.77098V243.430902h48.790589a26.844863 26.844863 0 0 0 26.885019-26.905098V37.486431a26.844863 26.844863 0 0 0-26.925176-26.915137H809.532235a26.854902 26.854902 0 0 0-26.925176 26.915137v58.448314H243.952941V37.938196a26.864941 26.864941 0 0 0-26.925176-26.925176H37.988392a26.854902 26.854902 0 0 0-26.915137 26.925176v179.029333a26.844863 26.844863 0 0 0 26.915137 26.925177h58.558745v537.770667H37.767529a26.864941 26.864941 0 0 0-26.925176 26.975372v178.979137a26.864941 26.864941 0 0 0 26.925176 26.925177h179.029334a26.864941 26.864941 0 0 0 26.925176-26.925177V939.26902h539.678118v48.680156a26.854902 26.854902 0 0 0 26.915137 26.925177h179.029333a26.854902 26.854902 0 0 0 26.915138-26.925177V808.919843a26.925176 26.925176 0 0 0-26.915138-26.925176zM849.92 77.874196h98.263843v98.293961H849.92z m-260.246588 85.333333L163.850039 589.06102v-129.907451L459.776 163.237647z m-511.297255 13.352157V78.325961h98.263843v98.263843z m138.651608 67.262745A26.854902 26.854902 0 0 0 243.952941 216.897255V163.237647h120.691451l-200.784314 200.784314V243.892706z m-53.177726 440.33004L684.79498 163.237647h97.812079v32.00502l-586.360471 586.290196h-32.396549z m12.569098 262.937098H78.145255v-98.233726h98.273882z m67.262745-75.294118V829.339608l585.928785-585.908706h42.857411v86.939608L330.992941 871.885804z m182.462745 0.090353L872.488157 425.662745v129.736784L556.011922 871.885804z m225.018981 0l221.30447-221.354667v131.513726h-62.152784a26.854902 26.854902 0 0 0-26.915137 26.925176v63.046275z m297.823372 75.725804h-98.283921v-98.304h98.263843z m0 0" p-id="69876" fill="#1afa29"></path></svg>