<?xml version="1.0" standalone="no"?><!DOCTYPE svg PUBLIC "-//W3C//DTD SVG 1.1//EN" "http://www.w3.org/Graphics/SVG/1.1/DTD/svg11.dtd"><svg t="1740101792555" class="icon" viewBox="0 0 1024 1024" version="1.1" xmlns="http://www.w3.org/2000/svg" p-id="11446" xmlns:xlink="http://www.w3.org/1999/xlink" width="200" height="200"><path d="M560 128C798.592 128 992 321.408 992 560S798.592 992 560 992 128 798.592 128 560 321.408 128 560 128z m23.264 251.008c-67.904 0-101.856 41.184-101.856 123.52v117.152c0 13.952 1.088 26.784 3.2 38.528 2.144 11.776 5.696 22.848 10.656 33.216 4.96 10.4 11.264 19.2 18.88 26.336 7.616 7.168 17.28 12.864 29.056 17.056a118.72 118.72 0 0 0 40.064 6.272 117.76 117.76 0 0 0 40.32-6.4 80.96 80.96 0 0 0 29.12-17.504c7.68-7.424 14.016-16.416 18.976-27.008 4.96-10.56 8.48-21.76 10.56-33.6 2.048-11.84 3.072-24.672 3.072-38.624v-115.424c0-82.336-34.016-123.52-102.048-123.52z m-276.544 7.296H256V735.04h60.608v-193.408l76.288 193.408h48.8V386.304h-58.464v182.4l-76.48-182.4z m465.408 116c-7.968 0-15.104 1.056-21.376 3.2-6.272 2.112-11.52 5.088-15.776 8.896a46.72 46.72 0 0 0-10.56 13.92c-2.816 5.504-4.8 11.456-6.08 17.856-1.216 6.4-1.856 13.408-1.856 21.088v13.12h40.096v-5.824l-0.064-3.296a67.68 67.68 0 0 1 0.32-7.264c0.192-2.56 0.48-5.12 0.8-7.616 0.32-2.528 0.832-4.896 1.6-7.136a29.472 29.472 0 0 1 2.816-5.984 11.52 11.52 0 0 1 10.112-5.632c2.624 0 4.96 0.704 7.04 2.144a14.816 14.816 0 0 1 4.8 5.632 32.8 32.8 0 0 1 3.488 14.528c0 4.032-0.576 8.128-1.696 12.32-1.12 4.16-2.784 8.384-4.992 12.64a138.816 138.816 0 0 1-6.208 10.944c-1.92 3.008-4.384 6.656-7.328 10.912l-50.88 72.832v35.904h111.296v-40.192h-65.056c3.168-4.256 8.192-10.4 15.104-18.4 6.88-8 12.8-15.2 17.76-21.568 4.96-6.336 10.112-13.696 15.456-22.016a111.04 111.04 0 0 0 12.384-26.016c2.88-9.024 4.352-18.144 4.352-27.36 0-17.728-4.832-31.776-14.528-42.112-9.664-10.336-23.36-15.52-41.024-15.52z m-188.864-68.896c21.056 0 31.584 17.184 31.584 51.52v150.624c0 34.24-10.528 51.328-31.584 51.328-20.896 0-31.36-17.088-31.36-51.328v-150.624c0-6.336 0.416-12.16 1.28-17.536 0.832-5.344 2.272-10.784 4.352-16.256a27.456 27.456 0 0 1 9.664-12.992 26.752 26.752 0 0 1 16.064-4.736z m292.16-49.024h-112v48h112v-48zM128 32a96 96 0 1 1 0 192 96 96 0 0 1 0-192z" fill="#1296db" p-id="11447"></path></svg>