<?xml version="1.0" standalone="no"?><!DOCTYPE svg PUBLIC "-//W3C//DTD SVG 1.1//EN" "http://www.w3.org/Graphics/SVG/1.1/DTD/svg11.dtd"><svg t="1740101763761" class="icon" viewBox="0 0 1084 1024" version="1.1" xmlns="http://www.w3.org/2000/svg" p-id="9943" xmlns:xlink="http://www.w3.org/1999/xlink" width="211.71875" height="200"><path d="M996.823278 0v712.798625H757.771163a44.028007 44.028007 0 1 0 0 88.013081h239.052115V935.943986H88.013081V333.741311h275.609744a44.028007 44.028007 0 1 0 0-88.013082H88.013081V0H0v1023.957067h1084.857826V0z" fill="#587FE8" p-id="9944"></path><path d="M567.255042 282.500524c0-72.449792 39.777619-116.241667 96.599723-116.241667s96.49239 43.791875 96.49239 116.241667-39.777619 117.787263-96.49239 117.787263-96.599723-45.316004-96.599723-117.787263m163.725797 0c0-56.435705-26.511257-91.254539-67.190474-91.254539s-67.233407 34.818834-67.233407 91.254539 26.511257 92.821601 67.233407 92.821601 67.190474-36.385896 67.190474-92.821601" fill="#587FE8" p-id="9945"></path><path d="M567.255042 282.500524c0-72.449792 39.777619-116.241667 96.599723-116.241667s96.49239 43.791875 96.49239 116.241667-39.777619 117.787263-96.49239 117.787263-96.599723-45.316004-96.599723-117.787263z m163.725797 0c0-56.435705-26.511257-91.254539-67.190474-91.254539s-67.233407 34.818834-67.233407 91.254539 26.511257 92.821601 67.233407 92.821601 67.190474-36.385896 67.190474-92.821601z" fill="#587FE8" p-id="9946"></path><path d="M810.128213 375.665591c37.845625-37.652425 59.140497-60.106494 59.140497-80.778836a22.110603 22.110603 0 0 0-23.763532-24.47193 37.051361 37.051361 0 0 0-26.74739 15.026624l-9.337973-8.973041a48.621861 48.621861 0 0 1 38.017357-19.019412 34.883233 34.883233 0 0 1 37.673893 36.643495c0 23.613266-21.659805 47.226531-51.391053 78.310176 6.697581-0.515199 14.597292-1.223596 21.123139-1.223597h36.493229v13.91036h-81.143768z" fill="#587FE8" p-id="9947"></path><path d="M810.128213 375.665591c37.845625-37.652425 59.140497-60.106494 59.140497-80.778836a22.110603 22.110603 0 0 0-23.763532-24.47193 37.051361 37.051361 0 0 0-26.74739 15.026624l-9.337973-8.973041a48.621861 48.621861 0 0 1 38.017357-19.019412 34.883233 34.883233 0 0 1 37.673893 36.643495c0 23.613266-21.659805 47.226531-51.391053 78.310176 6.697581-0.515199 14.597292-1.223596 21.123139-1.223597h36.493229v13.91036h-81.143768z" fill="#587FE8" p-id="9948"></path><path d="M209.3638 668.94235c0-72.449792 39.777619-116.241667 96.599724-116.241667s96.599723 43.791875 96.599723 116.241667-39.777619 117.787263-96.599723 117.787263-96.599723-45.316004-96.599724-117.787263m163.725798 0c0-56.435705-26.511257-91.254539-67.190474-91.254538s-67.233407 34.818834-67.233408 91.254538 26.511257 92.821601 67.233408 92.821601 67.190474-36.385896 67.190474-92.821601" fill="#587FE8" p-id="9949"></path><path d="M209.3638 668.94235c0-72.449792 39.777619-116.241667 96.599724-116.241667s96.599723 43.791875 96.599723 116.241667-39.777619 117.787263-96.599723 117.787263-96.599723-45.316004-96.599724-117.787263z m163.725798 0c0-56.435705-26.511257-91.254539-67.190474-91.254538s-67.233407 34.818834-67.233408 91.254538 26.511257 92.821601 67.233408 92.821601 67.190474-36.385896 67.190474-92.821601z" fill="#587FE8" p-id="9950"></path><path d="M452.258438 762.064484c37.845625-37.652425 59.140497-60.106494 59.140497-80.778836a22.110603 22.110603 0 0 0-23.763532-24.471929 37.051361 37.051361 0 0 0-26.74739 15.026623l-9.337973-8.973041a48.621861 48.621861 0 0 1 38.017358-19.019412 34.883233 34.883233 0 0 1 37.673892 36.643495c0 23.613266-21.659805 47.226531-51.391053 78.310176 6.697581-0.515199 14.597292-1.223596 21.123139-1.223597h36.493229v13.91036h-81.143767z" fill="#587FE8" p-id="9951"></path><path d="M452.258438 762.064484c37.845625-37.652425 59.140497-60.106494 59.140497-80.778836a22.110603 22.110603 0 0 0-23.763532-24.471929 37.051361 37.051361 0 0 0-26.74739 15.026623l-9.337973-8.973041a48.621861 48.621861 0 0 1 38.017358-19.019412 34.883233 34.883233 0 0 1 37.673892 36.643495c0 23.613266-21.659805 47.226531-51.391053 78.310176 6.697581-0.515199 14.597292-1.223596 21.123139-1.223597h36.493229v13.91036h-81.143767z" fill="#587FE8" p-id="9952"></path></svg>