<?xml version="1.0" standalone="no"?><!DOCTYPE svg PUBLIC "-//W3C//DTD SVG 1.1//EN" "http://www.w3.org/Graphics/SVG/1.1/DTD/svg11.dtd"><svg t="1740101627520" class="icon" viewBox="0 0 1024 1024" version="1.1" xmlns="http://www.w3.org/2000/svg" p-id="6075" xmlns:xlink="http://www.w3.org/1999/xlink" width="200" height="200"><path d="M138.112 329.44l-1.44 2.928A414.368 414.368 0 0 0 96 512c0 229.76 186.24 416 416 416 60.208 0 117.424-12.8 169.088-35.792a111.328 111.328 0 0 0 16.864 27.488A446.16 446.16 0 0 1 512 960C264.576 960 64 759.424 64 512c0-70.928 16.48-138.016 45.84-197.632 8.576 6.304 18.08 11.408 28.272 15.056zM512 64c247.424 0 448 200.576 448 448a446 446 0 0 1-88.016 266.72 111.968 111.968 0 0 0-23.392-22.24A414.064 414.064 0 0 0 928 512C928 282.24 741.76 96 512 96a414.08 414.08 0 0 0-237.584 74.48 112.736 112.736 0 0 0-19.168-25.632A445.792 445.792 0 0 1 512 64z" fill="#428DEC" p-id="6076"></path><path d="M848 208m-96 0a96 96 0 1 0 192 0 96 96 0 1 0-192 0Z" fill="#428DEC" p-id="6077"></path><path d="M512 256c141.392 0 256 114.608 256 256s-114.608 256-256 256-256-114.608-256-256 114.608-256 256-256z m-33.072 64H416v370.496h55.84V453.248l76.816 237.248h59.984V320h-55.84v248.768L478.928 320zM176 112a112 112 0 1 1 0 224 112 112 0 0 1 0-224z m16 64h-32l-0.016 32H128v32h31.984L160 272h32l-0.016-32H224v-32h-32.016L192 176zM784 736a112 112 0 1 1 0 224 112 112 0 0 1 0-224z m16 64h-32v32h-32v32h32v32h32v-32h32v-32h-32v-32z" fill="#428DEC" p-id="6078"></path></svg>